<svg width="166" height="166" viewBox="0 0 166 166" fill="none" xmlns="http://www.w3.org/2000/svg">
<g clip-path="url(#clip0_164_494)">
<path d="M0 0C54.78 0 109.56 0 166 0C166 54.78 166 109.56 166 166C111.22 166 56.44 166 0 166C0 111.22 0 56.44 0 0Z" fill="#FEFEFE"/>
<path d="M61.7793 31.1068C61.9379 31.1063 62.0965 31.1058 62.2599 31.1052C62.4342 31.1053 62.6086 31.1055 62.7882 31.1056C62.9752 31.1052 63.1622 31.1048 63.3493 31.1043C63.8637 31.1032 64.3782 31.103 64.8926 31.1029C65.4473 31.1026 66.002 31.1016 66.5567 31.1006C67.77 31.0988 68.9833 31.0979 70.1966 31.0973C70.9544 31.0969 71.7123 31.0964 72.4701 31.0957C74.5689 31.094 76.6677 31.0926 78.7664 31.0922C78.9679 31.0921 78.9679 31.0921 79.1735 31.0921C79.3082 31.092 79.4429 31.092 79.5816 31.092C79.8545 31.0919 80.1274 31.0918 80.4003 31.0918C80.5356 31.0918 80.671 31.0917 80.8105 31.0917C83.0023 31.0911 85.1941 31.0887 87.3859 31.0855C89.6369 31.0822 91.8879 31.0805 94.1389 31.0803C95.4024 31.0802 96.666 31.0794 97.9295 31.0769C99.0059 31.0748 100.082 31.0741 101.158 31.0752C101.707 31.0758 102.256 31.0756 102.805 31.0737C103.308 31.0719 103.811 31.0721 104.315 31.0738C104.581 31.0742 104.847 31.0725 105.114 31.0708C107.265 31.0829 109.081 31.6801 110.658 33.1757C112.649 35.2756 112.705 37.6014 112.69 40.3401C112.691 40.6848 112.692 41.0295 112.693 41.3742C112.695 42.1209 112.695 42.8676 112.693 43.6143C112.69 44.7247 112.691 45.8351 112.693 46.9455C112.696 48.9291 112.695 50.9126 112.693 52.8962C112.691 54.6318 112.69 56.3674 112.691 58.103C112.691 58.2183 112.691 58.3335 112.691 58.4523C112.691 58.9202 112.691 59.3881 112.691 59.856C112.692 64.2422 112.69 68.6283 112.686 73.0145C112.682 76.9097 112.681 80.8049 112.683 84.7C112.684 85.6978 112.684 86.6955 112.685 87.6933C112.685 87.8776 112.685 87.8776 112.685 88.0655C112.686 91.3226 112.685 94.5797 112.684 97.8368C112.683 98.1874 112.683 98.5379 112.683 98.8884C112.683 99.1209 112.683 99.3534 112.683 99.5859C112.682 101.321 112.682 103.055 112.683 104.79C112.684 106.762 112.683 108.735 112.68 110.707C112.678 111.81 112.677 112.914 112.679 114.017C112.68 114.841 112.679 115.665 112.676 116.49C112.675 116.823 112.675 117.156 112.676 117.489C112.685 120.138 112.4 122.205 110.534 124.24C109.2 125.469 107.517 126.175 105.709 126.179C105.55 126.179 105.391 126.18 105.227 126.18C105.053 126.18 104.88 126.18 104.701 126.18C104.514 126.181 104.327 126.181 104.14 126.182C103.626 126.183 103.113 126.184 102.599 126.184C102.045 126.185 101.491 126.186 100.936 126.187C99.5984 126.19 98.2605 126.191 96.9225 126.193C96.2919 126.193 95.6613 126.194 95.0308 126.195C92.9338 126.197 90.8368 126.199 88.7398 126.2C88.1959 126.2 87.652 126.201 87.1082 126.201C86.973 126.201 86.8379 126.201 86.6986 126.201C84.5096 126.202 82.3206 126.206 80.1316 126.21C77.8826 126.215 75.6336 126.217 73.3846 126.218C72.1225 126.218 70.8605 126.219 69.5984 126.223C68.5234 126.226 67.4485 126.227 66.3736 126.226C65.8256 126.225 65.2777 126.225 64.7297 126.228C64.227 126.23 63.7243 126.23 63.2216 126.228C62.9559 126.228 62.6902 126.23 62.4245 126.232C60.3505 126.217 58.6232 125.537 57.0971 124.128C55.0213 121.908 54.9748 119.292 54.9874 116.435C54.9868 116.095 54.986 115.754 54.985 115.414C54.9834 114.678 54.9835 113.941 54.9852 113.205C54.9876 112.11 54.9868 111.014 54.9854 109.919C54.983 107.963 54.9838 106.006 54.9859 104.049C54.9877 102.337 54.9884 100.625 54.988 98.9132C54.988 98.7995 54.988 98.6858 54.988 98.5686C54.9879 98.107 54.9878 97.6454 54.9877 97.1838C54.9867 92.8568 54.9889 88.5297 54.9925 84.2027C54.9957 80.3604 54.9964 76.5182 54.995 72.6759C54.9946 71.6918 54.9943 70.7077 54.9939 69.7236C54.9939 69.6024 54.9939 69.4812 54.9938 69.3564C54.9928 66.1432 54.9937 62.93 54.9952 59.7168C54.9953 59.371 54.9955 59.0252 54.9956 58.6793C54.9957 58.45 54.9958 58.2206 54.9959 57.9912C54.9967 56.2802 54.9965 54.5692 54.9959 52.8582C54.9952 50.9125 54.996 48.9668 54.9988 47.0211C55.0003 45.9329 55.0007 44.8446 54.9995 43.7564C54.9986 42.9432 55 42.13 55.0022 41.3168C55.0028 40.9883 55.0026 40.6598 55.0017 40.3313C54.9946 37.5128 55.1752 35.2483 57.2128 33.1017C58.1766 32.1878 59.1819 31.6406 60.4517 31.2633C60.534 31.2388 60.6163 31.2143 60.7011 31.189C61.0671 31.112 61.4051 31.1073 61.7793 31.1068Z" fill="#F8F8F8"/>
<path d="M61.7793 31.1068C61.9379 31.1063 62.0965 31.1058 62.2599 31.1052C62.4342 31.1053 62.6086 31.1055 62.7882 31.1056C62.9752 31.1052 63.1622 31.1048 63.3493 31.1043C63.8637 31.1032 64.3782 31.103 64.8926 31.1029C65.4473 31.1026 66.002 31.1016 66.5567 31.1006C67.77 31.0988 68.9833 31.0979 70.1966 31.0973C70.9544 31.0969 71.7123 31.0964 72.4701 31.0957C74.5689 31.094 76.6677 31.0926 78.7664 31.0922C78.968 31.0921 78.968 31.0921 79.1735 31.0921C79.3082 31.092 79.4429 31.092 79.5816 31.092C79.8545 31.0919 80.1274 31.0918 80.4003 31.0918C80.5356 31.0918 80.671 31.0917 80.8105 31.0917C83.0023 31.0911 85.1941 31.0887 87.3859 31.0855C89.6369 31.0822 91.8879 31.0805 94.1389 31.0803C95.4024 31.0802 96.666 31.0794 97.9295 31.0769C99.0059 31.0748 100.082 31.0741 101.158 31.0752C101.707 31.0758 102.256 31.0756 102.805 31.0737C103.308 31.0719 103.811 31.0721 104.315 31.0738C104.581 31.0742 104.847 31.0725 105.114 31.0708C107.265 31.0829 109.081 31.6801 110.658 33.1757C112.649 35.2756 112.705 37.6014 112.69 40.3401C112.691 40.6848 112.692 41.0295 112.693 41.3742C112.695 42.1209 112.695 42.8676 112.693 43.6143C112.69 44.7247 112.691 45.8351 112.693 46.9455C112.696 48.9291 112.695 50.9126 112.693 52.8962C112.691 54.6318 112.69 56.3674 112.691 58.103C112.691 58.2183 112.691 58.3335 112.691 58.4523C112.691 58.9202 112.691 59.3881 112.691 59.856C112.692 64.2422 112.69 68.6283 112.686 73.0145C112.682 76.9097 112.681 80.8049 112.683 84.7C112.684 85.6978 112.684 86.6955 112.685 87.6933C112.685 87.8776 112.685 87.8776 112.685 88.0655C112.686 91.3226 112.685 94.5797 112.684 97.8368C112.683 98.1874 112.683 98.5379 112.683 98.8884C112.683 99.1209 112.683 99.3534 112.683 99.5859C112.682 101.321 112.682 103.055 112.683 104.79C112.684 106.762 112.683 108.735 112.68 110.707C112.678 111.81 112.677 112.914 112.679 114.017C112.68 114.841 112.679 115.665 112.676 116.49C112.675 116.823 112.675 117.156 112.676 117.489C112.685 120.138 112.4 122.205 110.534 124.24C109.2 125.469 107.517 126.175 105.709 126.179C105.55 126.179 105.391 126.18 105.227 126.18C105.053 126.18 104.88 126.18 104.701 126.18C104.514 126.181 104.327 126.181 104.14 126.182C103.626 126.183 103.113 126.184 102.599 126.184C102.045 126.185 101.491 126.186 100.936 126.187C99.5984 126.19 98.2605 126.191 96.9225 126.193C96.2919 126.193 95.6613 126.194 95.0308 126.195C92.9338 126.197 90.8368 126.199 88.7398 126.2C88.1959 126.2 87.652 126.201 87.1082 126.201C86.973 126.201 86.8379 126.201 86.6986 126.201C84.5096 126.202 82.3206 126.206 80.1316 126.21C77.8826 126.215 75.6336 126.217 73.3846 126.218C72.1225 126.218 70.8605 126.219 69.5984 126.223C68.5234 126.226 67.4485 126.227 66.3736 126.226C65.8256 126.225 65.2777 126.225 64.7297 126.228C64.227 126.23 63.7243 126.23 63.2216 126.228C62.9559 126.228 62.6902 126.23 62.4245 126.232C60.3505 126.217 58.6232 125.537 57.0971 124.128C55.0213 121.908 54.9748 119.292 54.9874 116.435C54.9868 116.095 54.986 115.754 54.985 115.414C54.9834 114.678 54.9835 113.941 54.9852 113.205C54.9876 112.11 54.9868 111.014 54.9854 109.919C54.983 107.963 54.9838 106.006 54.9859 104.049C54.9877 102.337 54.9884 100.625 54.988 98.9132C54.988 98.7995 54.988 98.6857 54.988 98.5686C54.9879 98.107 54.9878 97.6454 54.9877 97.1838C54.9867 92.8568 54.9889 88.5297 54.9925 84.2027C54.9957 80.3604 54.9964 76.5182 54.995 72.6759C54.9946 71.6918 54.9943 70.7077 54.9939 69.7236C54.9939 69.6024 54.9939 69.4812 54.9938 69.3564C54.9928 66.1432 54.9937 62.93 54.9952 59.7168C54.9953 59.371 54.9955 59.0252 54.9956 58.6793C54.9957 58.4499 54.9958 58.2206 54.9959 57.9912C54.9967 56.2802 54.9965 54.5692 54.9959 52.8582C54.9952 50.9125 54.996 48.9668 54.9988 47.0211C55.0003 45.9329 55.0007 44.8446 54.9995 43.7564C54.9986 42.9432 55 42.13 55.0022 41.3168C55.0028 40.9883 55.0026 40.6598 55.0017 40.3313C54.9946 37.5128 55.1752 35.2483 57.2128 33.1017C58.1766 32.1878 59.1819 31.6406 60.4517 31.2633C60.534 31.2388 60.6163 31.2143 60.7011 31.189C61.0671 31.112 61.4051 31.1073 61.7793 31.1068ZM56.3017 45.65C56.3017 66.5121 56.3017 87.3741 56.3017 108.868C74.5161 108.868 92.7304 108.868 111.497 108.868C111.497 88.0063 111.497 67.1442 111.497 45.65C93.2824 45.65 75.068 45.65 56.3017 45.65Z" fill="#E1E2E1"/>
<path d="M56.3018 47.725C78.881 47.725 78.881 47.725 81.1153 49.0046C81.248 49.0773 81.248 49.0773 81.3833 49.1515C82.0025 49.4941 82.0025 49.4941 82.1701 49.6616C82.406 49.6834 82.6428 49.6964 82.8796 49.7054C83.0942 49.7141 83.0942 49.7141 83.3132 49.723C83.4638 49.7284 83.6144 49.7339 83.7696 49.7395C83.9207 49.7454 84.0718 49.7514 84.2275 49.7576C84.6023 49.7723 84.977 49.7864 85.3518 49.8C85.2223 49.9529 85.0926 50.1056 84.9627 50.2582C84.8544 50.3858 84.8544 50.3858 84.7438 50.516C84.5218 50.7683 84.5218 50.7683 84.3036 50.9325C84.0016 51.3173 84.0553 51.6453 84.0557 52.1288C84.0552 52.226 84.0547 52.3231 84.0542 52.4232C84.0531 52.7513 84.055 53.0793 84.0569 53.4074C84.0567 53.644 84.0563 53.8806 84.0558 54.1172C84.0548 54.7692 84.0565 55.4212 84.0586 56.0733C84.0604 56.7757 84.0598 57.4781 84.0595 58.1805C84.0592 59.3981 84.0606 60.6157 84.0629 61.8334C84.0662 63.5938 84.0673 65.3543 84.0679 67.1148C84.0688 69.9709 84.0715 72.8269 84.0755 75.683C84.0793 78.4579 84.0822 81.2328 84.084 84.0077C84.0841 84.1787 84.0842 84.3496 84.0843 84.5258C84.0848 85.3834 84.0854 86.241 84.0859 87.0986C84.0902 94.2168 84.0975 101.335 84.1068 108.453C83.6918 108.453 83.6918 108.453 83.4626 108.245C83.3364 108.104 83.3364 108.104 83.2076 107.96C82.0151 106.727 80.5339 105.967 78.8501 105.687C67.6887 105.618 67.6887 105.618 56.3018 105.548C56.3018 86.4666 56.3018 67.3849 56.3018 47.725Z" fill="#FEFEFE"/>
<path d="M61.9509 32.351C62.1894 32.3499 62.1894 32.3499 62.4327 32.3489C62.6927 32.3488 62.6927 32.3488 62.958 32.3487C63.1451 32.3481 63.3321 32.3475 63.5192 32.3468C64.0325 32.3452 64.5458 32.3444 65.0591 32.3438C65.613 32.3429 66.1669 32.3413 66.7208 32.3398C68.0582 32.3365 69.3956 32.3344 70.7329 32.3326C71.1109 32.3321 71.4888 32.3316 71.8668 32.331C74.2156 32.3275 76.5644 32.3245 78.9132 32.3228C79.4569 32.3224 80.0006 32.3219 80.5443 32.3215C80.6795 32.3214 80.8146 32.3213 80.9538 32.3212C83.1418 32.3195 85.3299 32.3149 87.5179 32.3091C89.7661 32.3032 92.0143 32.3 94.2625 32.2993C95.524 32.2988 96.7856 32.2972 98.0471 32.2926C99.1217 32.2887 100.196 32.2872 101.271 32.2888C101.819 32.2895 102.366 32.2891 102.914 32.2856C103.417 32.2825 103.919 32.2827 104.422 32.2853C104.687 32.2858 104.952 32.283 105.218 32.28C106.803 32.2944 108.342 32.7019 109.565 33.7522C112.439 36.6943 111.497 40.3798 111.497 44.405C93.2824 44.405 75.0681 44.405 56.3018 44.405C56.3018 35.7849 56.3018 35.7849 58.0833 33.8922C59.2038 32.8396 60.4194 32.3546 61.9509 32.351Z" fill="#E1E2E1"/>
<path d="M61.7793 31.1068C61.9379 31.1063 62.0965 31.1058 62.2599 31.1052C62.4342 31.1053 62.6086 31.1055 62.7882 31.1056C62.9752 31.1052 63.1622 31.1048 63.3493 31.1043C63.8637 31.1032 64.3782 31.103 64.8926 31.1029C65.4473 31.1026 66.002 31.1016 66.5567 31.1006C67.77 31.0988 68.9833 31.0979 70.1966 31.0973C70.9544 31.0969 71.7123 31.0964 72.4701 31.0957C74.5689 31.094 76.6677 31.0926 78.7664 31.0922C78.9679 31.0921 78.9679 31.0921 79.1735 31.0921C79.3082 31.092 79.4429 31.092 79.5816 31.092C79.8545 31.0919 80.1274 31.0918 80.4003 31.0918C80.5356 31.0918 80.671 31.0917 80.8105 31.0917C83.0023 31.0911 85.1941 31.0887 87.3859 31.0855C89.6369 31.0822 91.8879 31.0805 94.1389 31.0803C95.4024 31.0802 96.666 31.0794 97.9295 31.0769C99.0059 31.0748 100.082 31.0741 101.158 31.0752C101.707 31.0758 102.256 31.0756 102.805 31.0737C103.308 31.0719 103.811 31.0721 104.315 31.0738C104.581 31.0742 104.847 31.0725 105.114 31.0708C107.265 31.0829 109.081 31.6801 110.658 33.1757C112.649 35.2756 112.705 37.6014 112.69 40.3401C112.691 40.6848 112.692 41.0295 112.693 41.3742C112.695 42.1209 112.695 42.8676 112.693 43.6143C112.69 44.7247 112.691 45.8351 112.693 46.9455C112.696 48.9291 112.695 50.9126 112.693 52.8962C112.691 54.6318 112.69 56.3674 112.691 58.103C112.691 58.2183 112.691 58.3335 112.691 58.4523C112.691 58.9202 112.691 59.3881 112.691 59.856C112.692 64.2422 112.69 68.6283 112.686 73.0145C112.682 76.9097 112.681 80.8049 112.683 84.7C112.684 85.6978 112.684 86.6955 112.685 87.6933C112.685 87.8776 112.685 87.8776 112.685 88.0655C112.686 91.3226 112.685 94.5797 112.684 97.8368C112.683 98.1874 112.683 98.5379 112.683 98.8884C112.683 99.1209 112.683 99.3534 112.683 99.5859C112.682 101.321 112.682 103.055 112.683 104.79C112.684 106.762 112.683 108.735 112.68 110.707C112.678 111.81 112.677 112.914 112.679 114.017C112.68 114.841 112.679 115.665 112.676 116.49C112.675 116.823 112.675 117.156 112.676 117.489C112.685 120.138 112.4 122.205 110.534 124.24C109.2 125.469 107.517 126.175 105.709 126.179C105.55 126.179 105.391 126.18 105.227 126.18C105.053 126.18 104.88 126.18 104.701 126.18C104.514 126.181 104.327 126.181 104.14 126.182C103.626 126.183 103.113 126.184 102.599 126.184C102.045 126.185 101.491 126.186 100.936 126.187C99.5984 126.19 98.2605 126.191 96.9225 126.193C96.2919 126.193 95.6613 126.194 95.0308 126.195C92.9338 126.197 90.8368 126.199 88.7398 126.2C88.1959 126.2 87.652 126.201 87.1082 126.201C86.973 126.201 86.8379 126.201 86.6986 126.201C84.5096 126.202 82.3206 126.206 80.1316 126.21C77.8826 126.215 75.6336 126.217 73.3846 126.218C72.1225 126.218 70.8605 126.219 69.5984 126.223C68.5234 126.226 67.4485 126.227 66.3736 126.226C65.8256 126.225 65.2777 126.225 64.7297 126.228C64.227 126.23 63.7243 126.23 63.2216 126.228C62.9559 126.228 62.6902 126.23 62.4245 126.232C60.3505 126.217 58.6232 125.537 57.0971 124.128C55.0213 121.908 54.9748 119.292 54.9874 116.435C54.9868 116.095 54.986 115.754 54.985 115.414C54.9834 114.678 54.9835 113.941 54.9852 113.205C54.9876 112.11 54.9868 111.014 54.9854 109.919C54.983 107.963 54.9838 106.006 54.9859 104.049C54.9877 102.337 54.9884 100.625 54.988 98.9132C54.988 98.7995 54.988 98.6858 54.988 98.5686C54.9879 98.107 54.9878 97.6454 54.9877 97.1838C54.9867 92.8568 54.9889 88.5297 54.9925 84.2027C54.9957 80.3604 54.9964 76.5182 54.995 72.6759C54.9946 71.6918 54.9943 70.7077 54.9939 69.7236C54.9939 69.6024 54.9939 69.4812 54.9938 69.3564C54.9928 66.1432 54.9937 62.93 54.9952 59.7168C54.9953 59.371 54.9955 59.0252 54.9956 58.6793C54.9957 58.45 54.9958 58.2206 54.9959 57.9912C54.9967 56.2802 54.9965 54.5692 54.9959 52.8582C54.9952 50.9125 54.996 48.9668 54.9988 47.0211C55.0003 45.9329 55.0007 44.8446 54.9995 43.7564C54.9986 42.9432 55 42.13 55.0022 41.3168C55.0028 40.9883 55.0026 40.6598 55.0017 40.3313C54.9946 37.5128 55.1752 35.2483 57.2128 33.1017C58.1766 32.1878 59.1819 31.6406 60.4517 31.2633C60.534 31.2388 60.6163 31.2143 60.7011 31.189C61.0671 31.112 61.4051 31.1073 61.7793 31.1068ZM57.5467 34.445C55.3987 37.2622 56.3017 41.1167 56.3017 44.405C74.5161 44.405 92.7304 44.405 111.497 44.405C111.937 38.7689 111.937 38.7689 109.785 34.0732C109.665 33.9677 109.545 33.8621 109.422 33.7533C109.346 33.6852 109.269 33.6171 109.191 33.5469C107.879 32.4597 106.387 32.2879 104.735 32.3016C104.547 32.3012 104.358 32.3005 104.17 32.2996C103.657 32.2978 103.144 32.2995 102.631 32.3017C102.076 32.3036 101.521 32.3022 100.966 32.3012C99.8805 32.2998 98.7952 32.3014 97.7098 32.3039C96.4451 32.3068 95.1804 32.3068 93.9157 32.3067C91.6591 32.3065 89.4025 32.3091 87.1459 32.3131C84.9574 32.317 82.7689 32.3189 80.5804 32.3187C80.4455 32.3187 80.3106 32.3187 80.1716 32.3187C80.037 32.3187 79.9023 32.3187 79.7636 32.3187C77.2696 32.3185 74.7757 32.3201 72.2817 32.3226C71.4005 32.3234 70.5194 32.3237 69.6382 32.3238C68.5645 32.324 67.4909 32.3253 66.4172 32.3278C65.8696 32.3291 65.322 32.3299 64.7744 32.3296C64.2729 32.3293 63.7714 32.3303 63.2698 32.3323C63.0031 32.333 62.7364 32.3324 62.4697 32.3317C60.4439 32.343 58.9449 32.9442 57.5467 34.445ZM56.3017 45.65C56.3017 66.5121 56.3017 87.3741 56.3017 108.868C74.5161 108.868 92.7304 108.868 111.497 108.868C111.497 88.0063 111.497 67.1443 111.497 45.65C93.2824 45.65 75.068 45.65 56.3017 45.65ZM56.3017 109.975C55.5423 117.031 55.5423 117.031 58.0833 123.393C59.2039 124.446 60.4198 124.931 61.9516 124.934C62.1108 124.934 62.27 124.935 62.4339 124.935C62.6075 124.935 62.781 124.935 62.9598 124.935C63.1471 124.936 63.3343 124.936 63.5216 124.937C64.0354 124.938 64.5492 124.939 65.0631 124.939C65.6175 124.94 66.172 124.941 66.7265 124.942C68.0651 124.945 69.4037 124.946 70.7423 124.948C71.3731 124.948 72.0039 124.949 72.6347 124.95C74.7323 124.952 76.8299 124.954 78.9275 124.955C79.4715 124.955 80.0155 124.956 80.5595 124.956C80.7623 124.956 80.7623 124.956 80.9692 124.956C83.1592 124.957 85.3492 124.961 87.5392 124.965C89.7889 124.97 92.0387 124.972 94.2885 124.973C95.5511 124.973 96.8137 124.974 98.0763 124.978C99.1516 124.981 100.227 124.982 101.302 124.981C101.85 124.98 102.399 124.98 102.947 124.983C103.45 124.985 103.952 124.985 104.455 124.983C104.721 124.983 104.987 124.985 105.253 124.987C107.043 124.974 108.506 124.47 109.837 123.255C112.919 119.801 111.497 113.696 111.497 109.975C93.2824 109.975 75.068 109.975 56.3017 109.975Z" fill="#212E54"/>
<path d="M56.3018 47.7251C59.0796 47.7089 61.8574 47.6967 64.6353 47.6892C65.9253 47.6857 67.2153 47.6808 68.5052 47.6729C69.6304 47.666 70.7556 47.6615 71.8808 47.66C72.4758 47.6591 73.0708 47.657 73.6658 47.6519C74.2276 47.6472 74.7892 47.6458 75.3509 47.6468C75.5555 47.6466 75.7601 47.6453 75.9646 47.6426C77.8491 47.6191 79.4742 48.0648 81.1153 49.0046C81.248 49.0774 81.248 49.0774 81.3833 49.1516C82.0025 49.4942 82.0025 49.4942 82.1701 49.6617C82.406 49.6835 82.6428 49.6964 82.8796 49.7055C83.0942 49.7142 83.0942 49.7142 83.3132 49.7231C83.4638 49.7285 83.6144 49.7339 83.7696 49.7395C83.9207 49.7455 84.0718 49.7515 84.2275 49.7576C84.6023 49.7724 84.977 49.7865 85.3518 49.8001C85.2223 49.953 85.0926 50.1057 84.9627 50.2583C84.8544 50.3859 84.8544 50.3859 84.7438 50.516C84.5218 50.7684 84.5218 50.7684 84.3036 50.9326C84.0016 51.3174 84.0553 51.6454 84.0557 52.1289C84.0552 52.226 84.0547 52.3232 84.0542 52.4233C84.0531 52.7514 84.055 53.0794 84.0569 53.4075C84.0567 53.6441 84.0563 53.8807 84.0558 54.1172C84.0548 54.7693 84.0565 55.4213 84.0586 56.0733C84.0604 56.7757 84.0598 57.4782 84.0595 58.1806C84.0592 59.3982 84.0606 60.6158 84.0629 61.8334C84.0662 63.5939 84.0673 65.3544 84.0679 67.1149C84.0688 69.971 84.0715 72.827 84.0755 75.6831C84.0793 78.458 84.0822 81.2329 84.084 84.0078C84.0841 84.1788 84.0842 84.3497 84.0843 84.5258C84.0848 85.3835 84.0854 86.2411 84.0859 87.0987C84.0902 94.2169 84.0975 101.335 84.1068 108.453C83.6918 108.453 83.6918 108.453 83.4626 108.245C83.3364 108.104 83.3364 108.104 83.2076 107.961C81.9357 106.644 80.2398 105.745 78.3958 105.668C78.2303 105.667 78.0648 105.666 77.8943 105.665C77.7551 105.664 77.7551 105.664 77.6131 105.663C77.3041 105.661 76.995 105.659 76.686 105.658C76.4637 105.657 76.2415 105.656 76.0192 105.654C75.417 105.65 74.8149 105.648 74.2128 105.645C73.583 105.642 72.9533 105.638 72.3235 105.634C71.1316 105.627 69.9396 105.621 68.7477 105.615C67.3904 105.608 66.0332 105.601 64.676 105.593C61.8846 105.577 59.0932 105.563 56.3018 105.548C56.3018 105.503 56.3018 105.457 56.3018 105.41C63.3319 105.41 70.362 105.41 77.6051 105.41C77.6051 86.4197 77.6051 67.4293 77.6051 47.8634C70.575 47.8634 63.5449 47.8634 56.3018 47.8634C56.3018 47.8177 56.3018 47.7721 56.3018 47.7251Z" fill="#E6ECE6"/>
<path d="M56.3018 45.65C74.5161 45.65 92.7305 45.65 111.497 45.65C111.497 66.5121 111.497 87.3741 111.497 108.868C93.2824 108.868 75.0681 108.868 56.3018 108.868C56.3018 107.773 56.3018 106.677 56.3018 105.548C59.2202 105.542 62.1386 105.537 65.0571 105.534C66.4122 105.533 67.7673 105.531 69.1225 105.527C70.3039 105.525 71.4853 105.523 72.6667 105.522C73.292 105.522 73.9173 105.521 74.5426 105.519C75.1318 105.517 75.7209 105.517 76.3101 105.517C76.5257 105.517 76.7414 105.516 76.957 105.515C79.5858 105.503 81.4998 106.154 83.3697 108.003C83.6619 108.317 83.6619 108.317 83.9684 108.453C84.0366 108.338 84.0366 108.338 84.1062 108.22C84.6618 107.329 85.3604 106.443 86.3201 105.963C86.2744 105.735 86.2288 105.507 86.1818 105.272C86.1818 104.633 86.1818 103.993 86.1818 103.335C87.5969 103.335 89.0121 103.335 90.4701 103.335C90.4701 104.995 90.4701 104.995 90.3318 105.548C97.2706 105.548 104.209 105.548 111.358 105.548C111.358 100.527 111.358 95.5054 111.358 90.3317C104.967 90.3317 98.5764 90.3317 91.9918 90.3317C91.9918 90.0121 91.9918 89.6926 91.9918 89.3634C98.3828 89.3634 104.774 89.3634 111.358 89.3634C111.358 75.6227 111.358 61.8821 111.358 47.725C106.116 47.7379 106.116 47.7379 100.767 47.751C99.6668 47.7519 98.5662 47.7528 97.4324 47.7538C96.4394 47.7579 96.4394 47.7579 95.4464 47.7629C95.0067 47.7652 94.5671 47.7655 94.1273 47.7646C93.564 47.7635 93.0008 47.7658 92.4375 47.7704C92.2323 47.7715 92.0271 47.7715 91.8219 47.7702C89.8261 47.7585 87.4908 48.2591 85.9312 49.6005C85.3474 49.9852 84.6297 49.8767 83.9511 49.8778C83.7248 49.8855 83.7248 49.8855 83.494 49.8932C82.353 49.8994 81.7137 49.6039 80.7868 48.97C80.4604 48.8009 80.1323 48.6628 79.7925 48.5204C79.5584 48.4209 79.5584 48.4209 79.3197 48.3194C78.5174 48.0129 77.8074 47.829 76.9461 47.8248C76.8571 47.824 76.7682 47.8232 76.6765 47.8224C76.3813 47.8201 76.0861 47.8197 75.7909 47.8193C75.5781 47.818 75.3653 47.8166 75.1526 47.815C74.577 47.8113 74.0015 47.8092 73.4259 47.8074C72.8237 47.8052 72.2215 47.8015 71.6192 47.798C70.4797 47.7915 69.3402 47.7864 68.2007 47.7818C66.903 47.7765 65.6053 47.7697 64.3076 47.7627C61.639 47.7485 58.9704 47.7362 56.3018 47.725C56.3018 47.0403 56.3018 46.3555 56.3018 45.65Z" fill="#C8D0C3"/>
<path d="M61.951 32.351C62.1894 32.3499 62.1894 32.3499 62.4327 32.3489C62.6928 32.3488 62.6928 32.3488 62.958 32.3487C63.1451 32.3481 63.3322 32.3475 63.5192 32.3468C64.0325 32.3452 64.5458 32.3444 65.0591 32.3438C65.613 32.3429 66.1669 32.3413 66.7209 32.3398C68.0582 32.3365 69.3956 32.3344 70.733 32.3326C71.1109 32.3321 71.4888 32.3316 71.8668 32.331C74.2156 32.3275 76.5644 32.3245 78.9132 32.3228C79.4569 32.3224 80.0007 32.3219 80.5444 32.3215C80.6795 32.3214 80.8146 32.3213 80.9539 32.3212C83.1419 32.3195 85.3299 32.3149 87.5179 32.3091C89.7661 32.3032 92.0143 32.3 94.2625 32.2993C95.5241 32.2988 96.7856 32.2972 98.0472 32.2926C99.1217 32.2887 100.196 32.2872 101.271 32.2888C101.819 32.2895 102.366 32.2891 102.914 32.2856C103.417 32.2825 103.919 32.2827 104.422 32.2853C104.687 32.2858 104.953 32.283 105.218 32.28C106.803 32.2944 108.342 32.7019 109.566 33.7522C110.68 34.8931 111.422 36.2696 111.421 37.8814C111.418 38.0074 111.415 38.1334 111.412 38.2632C111.412 38.3963 111.411 38.5295 111.41 38.6666C111.407 39.0866 111.4 39.5065 111.393 39.9264C111.39 40.2133 111.388 40.5003 111.385 40.7872C111.379 41.486 111.37 42.1846 111.358 42.8833C110.975 42.694 110.614 42.4926 110.254 42.2602C110.096 42.1588 110.096 42.1588 109.935 42.0553C109.822 41.9833 109.71 41.9113 109.595 41.8371C106.447 39.8353 103.147 38.1557 99.6109 36.9495C99.1851 36.7966 99.1851 36.7966 98.7539 36.6005C98.0304 36.2858 97.2656 36.1001 96.5049 35.8975C96.2669 35.8335 96.2669 35.8335 96.024 35.7682C94.9173 35.4768 93.8142 35.2417 92.6835 35.0685C92.2685 34.9983 92.2685 34.9983 91.9918 34.86C91.7711 34.8216 91.5493 34.7894 91.3271 34.7605C91.1244 34.734 91.1244 34.734 90.9175 34.707C90.7756 34.689 90.6337 34.671 90.4874 34.6525C90.3508 34.6344 90.2142 34.6164 90.0735 34.5979C89.6527 34.5436 89.2316 34.4933 88.8101 34.445C88.6901 34.4309 88.5702 34.4169 88.4466 34.4024C86.9623 34.2535 85.4672 34.273 83.9771 34.272C83.8296 34.2719 83.6822 34.2718 83.5302 34.2716C80.365 34.2736 77.2701 34.451 74.1828 35.2007C73.8596 35.2775 73.5354 35.347 73.2103 35.4155C67.0677 36.7433 61.495 39.5458 56.3018 43.0216C56.288 42.2468 56.278 41.4721 56.2714 40.6972C56.2686 40.4344 56.2649 40.1716 56.26 39.9088C56.218 37.5636 56.3982 35.6824 58.0834 33.8922C59.2038 32.8396 60.4195 32.3546 61.951 32.351Z" fill="#FEFEFE"/>
<path d="M85.9048 56.9933C87.4569 56.9933 89.009 56.9933 90.6081 56.9933C90.6081 71.4187 90.6081 85.8441 90.6081 100.707C89.056 100.752 87.5039 100.798 85.9048 100.845C85.9048 86.3739 85.9048 71.9029 85.9048 56.9933Z" fill="#FDD63E"/>
<path d="M56.3018 109.975C74.5161 109.975 92.7305 109.975 111.497 109.975C111.497 121.275 111.497 121.275 109.785 123.212C109.665 123.317 109.545 123.423 109.422 123.532C109.308 123.634 109.308 123.634 109.191 123.738C107.682 124.989 105.988 124.99 104.131 124.95C103.905 124.947 103.679 124.944 103.453 124.942C102.907 124.936 102.36 124.926 101.813 124.915C102.158 124.644 102.479 124.431 102.883 124.261C102.981 124.219 103.08 124.177 103.181 124.134C103.286 124.089 103.391 124.044 103.499 123.999C105.326 123.202 107.042 122.268 108.739 121.223C108.859 121.149 108.979 121.075 109.103 120.999C109.844 120.536 110.514 120.049 111.22 119.52C111.266 117.329 111.311 115.138 111.358 112.88C93.1897 112.88 75.021 112.88 56.3018 112.88C56.3018 111.921 56.3018 110.963 56.3018 109.975Z" fill="#212E54"/>
<path d="M42.0534 59.345C42.099 59.345 42.1447 59.345 42.1917 59.345C42.1917 73.816 42.1917 88.2871 42.1917 103.197C41.8945 102.8 41.7082 102.536 41.5184 102.103C41.4734 102.001 41.4283 101.899 41.3819 101.794C41.3353 101.686 41.2887 101.578 41.2407 101.467C41.1919 101.356 41.143 101.245 41.0927 101.13C40.7659 100.382 40.4454 99.631 40.1362 98.8753C40.0311 98.6208 39.923 98.3676 39.812 98.1156C38.9684 96.1802 38.4284 94.1594 37.9293 92.1127C37.8875 91.9421 37.8457 91.7716 37.8027 91.5959C37.5918 90.7109 37.4375 89.8532 37.3501 88.9483C37.3044 88.857 37.2588 88.7657 37.2117 88.6716C36.195 83.0268 36.506 76.6753 37.7651 71.1033C37.7881 70.9966 37.8112 70.8899 37.835 70.7799C38.7067 66.789 40.2056 62.9782 42.0534 59.345Z" fill="#E1E2E1"/>
<path d="M125.606 59.4833C127.663 62.2252 128.664 66.0452 129.513 69.3147C129.58 69.5726 129.648 69.8302 129.717 70.0874C130.649 73.5344 131.033 77.1528 131.027 80.7174C131.027 80.8648 131.027 80.8648 131.027 81.0151C131.015 86.5149 130.333 92.1895 128.237 97.3193C128.102 97.6486 127.973 97.9794 127.844 98.3112C127.212 99.9287 126.507 101.498 125.745 103.058C125.699 103.058 125.653 103.058 125.606 103.058C125.606 88.6785 125.606 74.2988 125.606 59.4833Z" fill="#E1E2E1"/>
<path d="M123.67 49.8C124.309 49.8 124.948 49.8 125.607 49.8C125.607 70.6164 125.607 91.4328 125.607 112.88C121.316 112.88 117.025 112.88 112.604 112.88C112.604 112.241 112.604 111.602 112.604 110.943C116.21 110.943 119.816 110.943 123.532 110.943C123.531 109.878 123.53 108.812 123.53 107.714C123.527 102.863 123.525 98.0114 123.523 93.1603C123.523 92.8228 123.523 92.4852 123.523 92.1477C123.52 80.9078 123.52 69.6682 123.601 58.4286C123.602 58.3129 123.603 58.1973 123.604 58.0781C123.623 55.3187 123.645 52.5594 123.67 49.8Z" fill="#1A3789"/>
<path d="M42.1919 49.8C42.831 49.8 43.4701 49.8 44.1286 49.8C44.1465 54.6446 44.1642 59.4891 44.1814 64.3337C44.1835 64.9161 44.1856 65.4986 44.1877 66.0811C44.1881 66.1969 44.1885 66.3128 44.1889 66.4322C44.1947 68.0418 44.2005 69.6513 44.2065 71.2609C44.2733 89.1979 44.2733 89.1979 44.2791 97.7129C44.2795 98.3637 44.2803 99.0146 44.2813 99.6655C44.2825 100.418 44.2829 101.171 44.2828 101.924C44.2828 102.191 44.2831 102.457 44.2836 102.723C44.2889 105.466 44.1989 108.2 44.1286 110.943C47.7349 110.943 51.3413 110.943 55.0569 110.943C55.0569 111.582 55.0569 112.222 55.0569 112.88C50.8114 112.88 46.566 112.88 42.1919 112.88C42.1919 92.0636 42.1919 71.2472 42.1919 49.8Z" fill="#1A3789"/>
<path d="M56.3018 45.65C74.4705 45.65 92.6392 45.65 111.358 45.65C111.358 46.3348 111.358 47.0195 111.358 47.725C111.094 47.7252 110.83 47.7254 110.558 47.7256C108.065 47.7279 105.572 47.7338 103.079 47.7433C101.797 47.7481 100.516 47.7516 99.2342 47.7521C98.1163 47.7525 96.9984 47.7554 95.8805 47.7611C95.2893 47.764 94.6982 47.7658 94.1071 47.7646C93.549 47.7636 92.991 47.7658 92.4329 47.7704C92.2296 47.7715 92.0264 47.7715 91.8232 47.7702C89.8269 47.7585 87.4913 48.2587 85.9312 49.6005C85.3474 49.9852 84.6297 49.8767 83.9511 49.8778C83.7248 49.8855 83.7248 49.8855 83.494 49.8932C82.353 49.8994 81.7137 49.6039 80.7868 48.97C80.4604 48.8009 80.1323 48.6628 79.7925 48.5204C79.5584 48.4209 79.5584 48.4209 79.3197 48.3194C78.5174 48.0129 77.8074 47.829 76.9461 47.8248C76.8571 47.824 76.7682 47.8232 76.6765 47.8224C76.3813 47.8201 76.0861 47.8197 75.7909 47.8193C75.5781 47.818 75.3653 47.8166 75.1526 47.815C74.577 47.8113 74.0015 47.8092 73.4259 47.8074C72.8237 47.8052 72.2215 47.8015 71.6192 47.798C70.4797 47.7915 69.3402 47.7864 68.2007 47.7818C66.903 47.7765 65.6053 47.7697 64.3076 47.7627C61.639 47.7485 58.9704 47.7362 56.3018 47.725C56.3018 47.0403 56.3018 46.3555 56.3018 45.65Z" fill="#E1E2E1"/>
<path d="M86.0435 57.1317C86.8195 57.1317 87.5956 57.1317 88.3951 57.1317C88.3951 70.9637 88.3951 84.7956 88.3951 99.0467C89.1255 99.0467 89.8559 99.0467 90.6085 99.0467C90.6085 99.3206 90.6085 99.5945 90.6085 99.8767C89.102 99.8767 87.5956 99.8767 86.0435 99.8767C86.0435 85.7709 86.0435 71.665 86.0435 57.1317Z" fill="#F5CC41"/>
<path d="M56.3018 105.548C59.2202 105.542 62.1386 105.537 65.0571 105.534C66.4122 105.533 67.7673 105.531 69.1225 105.527C70.3039 105.525 71.4853 105.523 72.6667 105.522C73.292 105.522 73.9173 105.521 74.5426 105.519C75.1318 105.517 75.7209 105.517 76.3101 105.517C76.5257 105.517 76.7414 105.516 76.957 105.515C79.5671 105.503 81.4976 106.151 83.3697 107.976C83.6918 108.315 83.6918 108.315 83.9684 108.73C74.8384 108.73 65.7084 108.73 56.3018 108.73C56.3018 107.68 56.3018 106.63 56.3018 105.548Z" fill="#D5DECF"/>
<path d="M56.3018 109.975C74.5161 109.975 92.7305 109.975 111.497 109.975C111.497 121.275 111.497 121.275 109.785 123.212C109.665 123.317 109.545 123.423 109.422 123.532C109.308 123.634 109.308 123.634 109.191 123.738C107.682 124.989 105.988 124.99 104.131 124.95C103.905 124.947 103.679 124.944 103.453 124.942C102.907 124.936 102.36 124.926 101.813 124.915C102.158 124.644 102.479 124.431 102.883 124.261C102.981 124.219 103.08 124.177 103.181 124.134C103.286 124.089 103.391 124.044 103.499 123.999C105.326 123.202 107.042 122.268 108.739 121.223C108.859 121.149 108.979 121.075 109.103 120.999C109.844 120.536 110.514 120.049 111.22 119.52C111.266 117.329 111.311 115.138 111.358 112.88C93.1897 112.88 75.021 112.88 56.3018 112.88C56.3018 112.834 56.3018 112.789 56.3018 112.742C74.4705 112.742 92.6392 112.742 111.358 112.742C111.358 112.148 111.358 111.555 111.358 110.943C93.1897 110.943 75.021 110.943 56.3018 110.943C56.3018 110.624 56.3018 110.304 56.3018 109.975Z" fill="#C8DEC4"/>
<path d="M33.1123 76.5053C34.9177 77.7727 36.1235 79.5771 36.5928 81.7382C36.9547 84.1277 36.3152 86.2237 34.9074 88.1561C33.7058 89.6355 31.992 90.4936 30.1565 90.885C30.0196 90.885 29.8826 90.885 29.7415 90.885C29.7415 94.537 29.7415 98.189 29.7415 101.952C29.3307 101.952 28.9198 101.952 28.4965 101.952C28.4965 98.2996 28.4965 94.6476 28.4965 90.885C28.0857 90.885 27.6748 90.885 27.2515 90.885C25.1011 90.432 23.2565 89.0444 22.0592 87.2245C21.7373 86.6666 21.5012 86.1021 21.3032 85.49C21.272 85.3988 21.2408 85.3077 21.2086 85.2138C20.648 83.2304 20.9618 81.0174 21.9516 79.239C23.1468 77.3938 24.8435 75.9512 27.0269 75.4553C29.2012 75.0739 31.235 75.3619 33.1123 76.5053ZM23.3668 79.0656C22.1601 80.7347 21.999 82.3716 22.1332 84.3833C22.2172 84.8765 22.3507 85.3081 22.5482 85.7666C22.5835 85.859 22.6188 85.9514 22.6552 86.0465C23.2967 87.5356 24.6621 88.7296 26.1119 89.4022C27.8497 90.0808 29.714 90.1026 31.4539 89.393C33.535 88.4285 34.6802 86.9733 35.4651 84.8329C35.8409 82.9498 35.5352 81.09 34.5659 79.4379C33.4118 77.7498 31.8902 76.8352 29.9112 76.4297C27.2896 76.0202 25.0255 77.0272 23.3668 79.0656Z" fill="#212E54"/>
<path d="M123.394 94.4817C123.439 94.4817 123.485 94.4817 123.532 94.4817C123.532 99.914 123.532 105.346 123.532 110.943C119.925 110.943 116.319 110.943 112.604 110.943C112.604 109.117 112.604 107.291 112.604 105.41C116.164 105.41 119.725 105.41 123.394 105.41C123.394 101.804 123.394 98.1973 123.394 94.4817Z" fill="#D4DFD0"/>
<path d="M44.1284 105.548C47.7348 105.548 51.3411 105.548 55.0568 105.548C55.0568 107.329 55.0568 109.109 55.0568 110.943C51.4504 110.943 47.8441 110.943 44.1284 110.943C44.1284 109.163 44.1284 107.383 44.1284 105.548Z" fill="#D3DECF"/>
<path d="M69.7202 126.16C79.0785 126.16 88.4367 126.16 98.0785 126.16C98.0785 126.206 98.0785 126.251 98.0785 126.298C94.9366 127.228 91.6683 127.974 88.3952 128.235C88.124 128.258 88.124 128.258 87.8473 128.281C85.016 128.49 82.0926 128.516 79.2652 128.235C79.0618 128.215 79.0618 128.215 78.8543 128.194C76.6844 127.964 74.5869 127.559 72.4696 127.042C72.3558 127.014 72.2421 126.987 72.1249 126.958C71.801 126.879 71.4776 126.798 71.1543 126.717C71.0573 126.693 70.9602 126.669 70.8602 126.644C70.4154 126.529 70.107 126.418 69.7202 126.16Z" fill="#E1E2E1"/>
<path d="M56.3018 89.3633C58.8245 89.3601 61.3472 89.3576 63.8699 89.3561C65.0411 89.3554 66.2124 89.3544 67.3837 89.3528C68.4042 89.3515 69.4246 89.3506 70.4451 89.3503C70.9858 89.3501 71.5265 89.3497 72.0672 89.3487C72.5755 89.3477 73.0838 89.3474 73.5921 89.3476C73.8688 89.3476 74.1455 89.3468 74.4222 89.3461C74.6669 89.3464 74.6669 89.3464 74.9166 89.3466C75.0592 89.3465 75.2019 89.3464 75.3489 89.3463C75.6684 89.3633 75.6684 89.3633 75.8068 89.5016C75.824 89.8474 75.824 89.8474 75.8068 90.1933C75.6684 90.3316 75.6684 90.3316 75.3489 90.3486C75.1349 90.3484 75.1349 90.3484 74.9166 90.3482C74.7534 90.3484 74.5903 90.3486 74.4222 90.3488C74.2416 90.3483 74.061 90.3478 73.8749 90.3473C73.6841 90.3473 73.4933 90.3473 73.3025 90.3474C72.7829 90.3474 72.2633 90.3466 71.7437 90.3456C71.2013 90.3448 70.6589 90.3447 70.1164 90.3445C69.0886 90.3441 68.0607 90.343 67.0329 90.3416C65.863 90.34 64.6931 90.3393 63.5233 90.3386C61.1161 90.3371 58.7089 90.3347 56.3018 90.3316C56.3018 90.0121 56.3018 89.6925 56.3018 89.3633Z" fill="#D1D9DA"/>
<path d="M112.604 112.88C114.612 112.88 116.621 112.88 118.69 112.88C118.067 113.815 118.067 113.815 117.652 114.231C117.562 114.322 117.472 114.413 117.378 114.507C117.284 114.6 117.189 114.694 117.091 114.791C116.992 114.889 116.894 114.986 116.792 115.087C116.137 115.731 115.467 116.329 114.743 116.897C114.286 117.26 113.858 117.653 113.43 118.05C113.157 118.275 113.157 118.275 112.604 118.552C112.604 116.68 112.604 114.808 112.604 112.88Z" fill="#E1E2E1"/>
<path d="M91.9917 89.3633C98.3827 89.3633 104.774 89.3633 111.358 89.3633C111.358 89.6828 111.358 90.0024 111.358 90.3316C104.967 90.3316 98.5764 90.3316 91.9917 90.3316C91.9917 90.0121 91.9917 89.6925 91.9917 89.3633Z" fill="#D0D8D9"/>
<path d="M48.9702 112.88C50.9788 112.88 52.9874 112.88 55.0569 112.88C55.0569 114.706 55.0569 116.532 55.0569 118.413C53.1463 117.458 51.547 115.606 50.0423 114.108C49.9366 114.003 49.8309 113.898 49.7221 113.789C49.5757 113.643 49.5757 113.643 49.4263 113.493C49.3383 113.405 49.2504 113.317 49.1597 113.226C48.9702 113.018 48.9702 113.018 48.9702 112.88Z" fill="#E1E2E1"/>
<path d="M56.3018 119.52C56.9054 119.857 57.4885 120.211 58.0644 120.593C60.538 122.231 63.1688 123.513 65.8468 124.777C65.8468 124.822 65.8468 124.868 65.8468 124.915C65.1972 124.922 64.5477 124.927 63.8981 124.93C63.6775 124.932 63.4569 124.933 63.2364 124.936C62.9177 124.939 62.5991 124.941 62.2804 124.942C62.1832 124.943 62.086 124.945 61.9859 124.946C60.3293 124.947 59.03 124.263 57.8337 123.148C56.9243 122.172 56.3018 120.872 56.3018 119.52Z" fill="#FDFDFB"/>
<path d="M111.358 119.52C111.353 120.841 110.866 121.967 110.079 123.022C108.638 124.43 107.102 124.975 105.113 124.968C104.785 124.964 104.458 124.957 104.131 124.95C103.905 124.947 103.679 124.944 103.453 124.942C102.907 124.936 102.36 124.927 101.813 124.915C102.158 124.644 102.479 124.431 102.883 124.261C102.981 124.219 103.08 124.177 103.181 124.134C103.286 124.089 103.391 124.044 103.499 123.999C105.326 123.202 107.042 122.268 108.739 121.223C108.919 121.112 108.919 121.112 109.103 120.999C109.765 120.586 110.397 120.151 111.013 119.671C111.22 119.52 111.22 119.52 111.358 119.52Z" fill="#FDFDFC"/>
<path d="M85.9048 56.9933C87.4569 56.9933 89.009 56.9933 90.6081 56.9933C90.6081 70.8709 90.6081 84.7485 90.6081 99.0466C90.5625 99.0466 90.5168 99.0466 90.4698 99.0466C90.4698 85.2147 90.4698 71.3827 90.4698 57.1316C89.009 57.1316 87.5482 57.1316 86.0431 57.1316C86.0431 71.2375 86.0431 85.3433 86.0431 99.8766C87.5496 99.8766 89.056 99.8766 90.6081 99.8766C90.6081 100.151 90.6081 100.424 90.6081 100.707C89.056 100.752 87.5039 100.798 85.9048 100.845C85.9048 86.3739 85.9048 71.9029 85.9048 56.9933Z" fill="#FAE38E"/>
<path d="M56.3018 93.0984C62.7384 93.0984 69.1751 93.0984 75.8068 93.0984C75.8068 93.3266 75.8068 93.5549 75.8068 93.7901C75.6684 93.9284 75.6684 93.9284 75.3489 93.9454C75.1349 93.9452 75.1349 93.9452 74.9166 93.945C74.7534 93.9452 74.5903 93.9454 74.4222 93.9456C74.2416 93.9451 74.061 93.9446 73.8749 93.9441C73.6841 93.9441 73.4933 93.9441 73.3025 93.9442C72.7829 93.9442 72.2633 93.9434 71.7437 93.9424C71.2013 93.9416 70.6589 93.9415 70.1164 93.9413C69.0886 93.9409 68.0607 93.9397 67.0329 93.9384C65.863 93.9368 64.6931 93.936 63.5233 93.9354C61.1161 93.9339 58.7089 93.9315 56.3018 93.9284C56.3018 93.6545 56.3018 93.3806 56.3018 93.0984Z" fill="#D0D9DA"/>
<path d="M56.3018 91.8533C62.7384 91.8533 69.1751 91.8533 75.8068 91.8533C75.8068 92.0815 75.8068 92.3098 75.8068 92.5449C75.6684 92.6833 75.6684 92.6833 75.3489 92.7003C75.1349 92.7001 75.1349 92.7001 74.9166 92.6999C74.7534 92.7001 74.5903 92.7003 74.4222 92.7005C74.2416 92.7 74.061 92.6995 73.8749 92.699C73.6841 92.6989 73.4933 92.699 73.3025 92.699C72.7829 92.6991 72.2633 92.6983 71.7437 92.6973C71.2013 92.6964 70.6589 92.6964 70.1164 92.6962C69.0886 92.6958 68.0607 92.6946 67.0329 92.6932C65.863 92.6917 64.6931 92.6909 63.5233 92.6902C61.1161 92.6888 58.7089 92.6864 56.3018 92.6833C56.3018 92.4094 56.3018 92.1355 56.3018 91.8533Z" fill="#D0D9DA"/>
<path d="M56.3018 90.6083C58.8245 90.605 61.3472 90.6026 63.8699 90.6011C65.0411 90.6004 66.2124 90.5994 67.3837 90.5978C68.4041 90.5965 69.4246 90.5956 70.4451 90.5953C70.9858 90.5951 71.5265 90.5947 72.0672 90.5936C72.5755 90.5927 73.0838 90.5924 73.5921 90.5926C73.8688 90.5926 74.1455 90.5918 74.4222 90.5911C74.6669 90.5913 74.6669 90.5913 74.9166 90.5916C75.0592 90.5915 75.2019 90.5914 75.3489 90.5913C75.6684 90.6083 75.6684 90.6083 75.8068 90.7466C75.8068 90.9749 75.8068 91.2031 75.8068 91.4383C69.3701 91.4383 62.9335 91.4383 56.3018 91.4383C56.3018 91.1644 56.3018 90.8905 56.3018 90.6083Z" fill="#D0D9DA"/>
<path d="M56.3018 87.0117C58.8245 87.0085 61.3472 87.006 63.8699 87.0046C65.0411 87.0038 66.2124 87.0029 67.3837 87.0013C68.4041 86.9999 69.4246 86.999 70.4451 86.9987C70.9858 86.9985 71.5265 86.9981 72.0672 86.9971C72.5755 86.9962 73.0838 86.9959 73.5921 86.9961C73.8688 86.996 74.1455 86.9953 74.4222 86.9945C74.6669 86.9948 74.6669 86.9948 74.9166 86.9951C75.0592 86.995 75.2019 86.9948 75.3489 86.9947C75.6684 87.0117 75.6684 87.0117 75.8068 87.1501C75.8068 87.3783 75.8068 87.6066 75.8068 87.8417C69.3701 87.8417 62.9335 87.8417 56.3018 87.8417C56.3018 87.5678 56.3018 87.2939 56.3018 87.0117Z" fill="#D0D9DA"/>
<path d="M56.3018 85.7667C58.8245 85.7635 61.3472 85.7611 63.8699 85.7596C65.0411 85.7588 66.2124 85.7579 67.3837 85.7563C68.4041 85.7549 69.4246 85.754 70.4451 85.7537C70.9858 85.7535 71.5265 85.7531 72.0672 85.7521C72.5755 85.7512 73.0838 85.7509 73.5921 85.7511C73.8688 85.751 74.1455 85.7503 74.4222 85.7495C74.6669 85.7498 74.6669 85.7498 74.9166 85.7501C75.0592 85.75 75.2019 85.7498 75.3489 85.7497C75.6684 85.7667 75.6684 85.7667 75.8068 85.9051C75.8068 86.1333 75.8068 86.3616 75.8068 86.5967C69.3701 86.5967 62.9335 86.5967 56.3018 86.5967C56.3018 86.3228 56.3018 86.0489 56.3018 85.7667Z" fill="#D0D9DA"/>
<path d="M56.3018 80.925C62.7384 80.925 69.1751 80.925 75.8068 80.925C75.8068 81.1533 75.8068 81.3815 75.8068 81.6167C75.6684 81.755 75.6684 81.755 75.3489 81.7721C75.1349 81.7719 75.1349 81.7719 74.9166 81.7717C74.7534 81.7719 74.5903 81.7721 74.4222 81.7723C74.2416 81.7718 74.061 81.7713 73.8749 81.7708C73.6841 81.7707 73.4933 81.7707 73.3025 81.7708C72.7829 81.7709 72.2633 81.77 71.7437 81.7691C71.2013 81.7682 70.6589 81.7681 70.1164 81.768C69.0886 81.7675 68.0607 81.7664 67.0329 81.765C65.863 81.7635 64.6931 81.7627 63.5233 81.762C61.1161 81.7606 58.7089 81.7581 56.3018 81.755C56.3018 81.4811 56.3018 81.2072 56.3018 80.925Z" fill="#CED7D8"/>
<path d="M56.3018 75.9449C62.7384 75.9449 69.1751 75.9449 75.8068 75.9449C75.8068 76.1732 75.8068 76.4014 75.8068 76.6366C75.6684 76.7749 75.6684 76.7749 75.3489 76.792C75.1349 76.7918 75.1349 76.7918 74.9166 76.7916C74.7534 76.7918 74.5903 76.792 74.4222 76.7922C74.2416 76.7917 74.061 76.7912 73.8749 76.7907C73.6841 76.7906 73.4933 76.7906 73.3025 76.7907C72.7829 76.7908 72.2633 76.7899 71.7437 76.789C71.2013 76.7881 70.6589 76.788 70.1164 76.7879C69.0886 76.7874 68.0607 76.7863 67.0329 76.7849C65.863 76.7834 64.6931 76.7826 63.5233 76.7819C61.1161 76.7805 58.7089 76.778 56.3018 76.7749C56.3018 76.501 56.3018 76.2271 56.3018 75.9449Z" fill="#D0D9DA"/>
<path d="M56.3018 74.7C62.7384 74.7 69.1751 74.7 75.8068 74.7C75.8068 74.9282 75.8068 75.1565 75.8068 75.3916C75.6684 75.53 75.6684 75.53 75.3489 75.547C75.1349 75.5468 75.1349 75.5468 74.9166 75.5466C74.7534 75.5468 74.5903 75.547 74.4222 75.5472C74.2416 75.5467 74.061 75.5462 73.8749 75.5457C73.6841 75.5456 73.4933 75.5456 73.3025 75.5457C72.7829 75.5458 72.2633 75.5449 71.7437 75.544C71.2013 75.5431 70.6589 75.543 70.1164 75.5429C69.0886 75.5424 68.0607 75.5413 67.0329 75.5399C65.863 75.5384 64.6931 75.5376 63.5233 75.5369C61.1161 75.5355 58.7089 75.533 56.3018 75.53C56.3018 75.2561 56.3018 74.9822 56.3018 74.7Z" fill="#D0D9DA"/>
<path d="M56.3018 73.455C58.8245 73.4517 61.3472 73.4493 63.8699 73.4478C65.0411 73.4471 66.2124 73.4461 67.3837 73.4445C68.4041 73.4431 69.4246 73.4422 70.4451 73.4419C70.9858 73.4418 71.5265 73.4413 72.0672 73.4403C72.5755 73.4394 73.0838 73.4391 73.5921 73.4393C73.8688 73.4393 74.1455 73.4385 74.4222 73.4377C74.6669 73.438 74.6669 73.438 74.9166 73.4383C75.0592 73.4382 75.2019 73.4381 75.3489 73.4379C75.6684 73.455 75.6684 73.455 75.8068 73.5933C75.8068 73.8215 75.8068 74.0498 75.8068 74.285C69.3701 74.285 62.9335 74.285 56.3018 74.285C56.3018 74.0111 56.3018 73.7372 56.3018 73.455Z" fill="#D0D9DA"/>
<path d="M56.3018 63.6333C62.7384 63.6333 69.1751 63.6333 75.8068 63.6333C75.8068 63.8616 75.8068 64.0898 75.8068 64.325C75.6684 64.4633 75.6684 64.4633 75.3489 64.4803C75.1349 64.4801 75.1349 64.4801 74.9166 64.4799C74.7534 64.4801 74.5903 64.4803 74.4222 64.4805C74.2416 64.48 74.061 64.4795 73.8749 64.479C73.6841 64.479 73.4933 64.479 73.3025 64.4791C72.7829 64.4791 72.2633 64.4783 71.7437 64.4773C71.2013 64.4765 70.6589 64.4764 70.1164 64.4762C69.0886 64.4758 68.0607 64.4746 67.0329 64.4733C65.863 64.4717 64.6931 64.471 63.5233 64.4703C61.1161 64.4688 58.7089 64.4664 56.3018 64.4633C56.3018 64.1894 56.3018 63.9155 56.3018 63.6333Z" fill="#D0D9DA"/>
<path d="M56.3018 62.3883C62.7384 62.3883 69.1751 62.3883 75.8068 62.3883C75.8068 62.6166 75.8068 62.8448 75.8068 63.08C75.6684 63.2183 75.6684 63.2183 75.3489 63.2353C75.1349 63.2351 75.1349 63.2351 74.9166 63.2349C74.7534 63.2351 74.5903 63.2353 74.4222 63.2355C74.2416 63.235 74.061 63.2345 73.8749 63.234C73.6841 63.234 73.4933 63.234 73.3025 63.2341C72.7829 63.2341 72.2633 63.2333 71.7437 63.2323C71.2013 63.2315 70.6589 63.2314 70.1164 63.2312C69.0886 63.2308 68.0607 63.2297 67.0329 63.2283C65.863 63.2267 64.6931 63.226 63.5233 63.2253C61.1161 63.2238 58.7089 63.2214 56.3018 63.2183C56.3018 62.9444 56.3018 62.6705 56.3018 62.3883Z" fill="#D0D9DA"/>
<path d="M56.3018 61.1433C58.8245 61.1401 61.3472 61.1376 63.8699 61.1361C65.0411 61.1354 66.2124 61.1345 67.3837 61.1329C68.4041 61.1315 69.4246 61.1306 70.4451 61.1303C70.9858 61.1301 71.5265 61.1297 72.0672 61.1287C72.5755 61.1277 73.0838 61.1275 73.5921 61.1277C73.8688 61.1276 74.1455 61.1269 74.4222 61.1261C74.6669 61.1264 74.6669 61.1264 74.9166 61.1267C75.0592 61.1265 75.2019 61.1264 75.3489 61.1263C75.6684 61.1433 75.6684 61.1433 75.8068 61.2816C75.8068 61.5099 75.8068 61.7381 75.8068 61.9733C69.3701 61.9733 62.9335 61.9733 56.3018 61.9733C56.3018 61.6994 56.3018 61.4255 56.3018 61.1433Z" fill="#D0D9DA"/>
<path d="M56.3018 59.8983C58.8245 59.8951 61.3472 59.8926 63.8699 59.8911C65.0411 59.8904 66.2124 59.8895 67.3837 59.8879C68.4041 59.8865 69.4246 59.8856 70.4451 59.8853C70.9858 59.8851 71.5265 59.8847 72.0672 59.8837C72.5755 59.8828 73.0838 59.8825 73.5921 59.8827C73.8688 59.8826 74.1455 59.8819 74.4222 59.8811C74.6669 59.8814 74.6669 59.8814 74.9166 59.8817C75.0592 59.8816 75.2019 59.8814 75.3489 59.8813C75.6684 59.8983 75.6684 59.8983 75.8068 60.0366C75.8068 60.2649 75.8068 60.4931 75.8068 60.7283C69.3701 60.7283 62.9335 60.7283 56.3018 60.7283C56.3018 60.4544 56.3018 60.1805 56.3018 59.8983Z" fill="#CED7D8"/>
<path d="M91.9917 93.0984C98.3827 93.0984 104.774 93.0984 111.358 93.0984C111.358 93.3723 111.358 93.6462 111.358 93.9284C104.967 93.9284 98.5764 93.9284 91.9917 93.9284C91.9917 93.6545 91.9917 93.3806 91.9917 93.0984Z" fill="#CFD8D9"/>
<path d="M91.9917 91.8533C98.3827 91.8533 104.774 91.8533 111.358 91.8533C111.358 92.1272 111.358 92.4011 111.358 92.6833C104.967 92.6833 98.5764 92.6833 91.9917 92.6833C91.9917 92.4094 91.9917 92.1355 91.9917 91.8533Z" fill="#CFD8D9"/>
<path d="M91.9917 90.6084C98.3827 90.6084 104.774 90.6084 111.358 90.6084C111.358 90.8823 111.358 91.1562 111.358 91.4384C104.967 91.4384 98.5764 91.4384 91.9917 91.4384C91.9917 91.1645 91.9917 90.8906 91.9917 90.6084Z" fill="#CFD8D9"/>
<path d="M91.9917 87.0117C98.3827 87.0117 104.774 87.0117 111.358 87.0117C111.358 87.2856 111.358 87.5595 111.358 87.8417C104.967 87.8417 98.5764 87.8417 91.9917 87.8417C91.9917 87.5678 91.9917 87.2939 91.9917 87.0117Z" fill="#CFD8D9"/>
<path d="M91.9917 85.7667C98.3827 85.7667 104.774 85.7667 111.358 85.7667C111.358 86.0406 111.358 86.3145 111.358 86.5967C104.967 86.5967 98.5764 86.5967 91.9917 86.5967C91.9917 86.3228 91.9917 86.0489 91.9917 85.7667Z" fill="#CFD8D9"/>
<path d="M91.9917 75.9449C98.3827 75.9449 104.774 75.9449 111.358 75.9449C111.358 76.2188 111.358 76.4927 111.358 76.7749C104.967 76.7749 98.5764 76.7749 91.9917 76.7749C91.9917 76.501 91.9917 76.2271 91.9917 75.9449Z" fill="#CFD8D9"/>
<path d="M91.9917 74.7C98.3827 74.7 104.774 74.7 111.358 74.7C111.358 74.9739 111.358 75.2478 111.358 75.53C104.967 75.53 98.5764 75.53 91.9917 75.53C91.9917 75.2561 91.9917 74.9822 91.9917 74.7Z" fill="#CFD8D9"/>
<path d="M91.9917 73.455C98.3827 73.455 104.774 73.455 111.358 73.455C111.358 73.7289 111.358 74.0028 111.358 74.285C104.967 74.285 98.5764 74.285 91.9917 74.285C91.9917 74.0111 91.9917 73.7372 91.9917 73.455Z" fill="#CFD8D9"/>
<path d="M91.9917 63.6333C98.3827 63.6333 104.774 63.6333 111.358 63.6333C111.358 63.9072 111.358 64.1811 111.358 64.4633C104.967 64.4633 98.5764 64.4633 91.9917 64.4633C91.9917 64.1894 91.9917 63.9155 91.9917 63.6333Z" fill="#CFD8D9"/>
<path d="M91.9917 62.3883C98.3827 62.3883 104.774 62.3883 111.358 62.3883C111.358 62.6622 111.358 62.9361 111.358 63.2183C104.967 63.2183 98.5764 63.2183 91.9917 63.2183C91.9917 62.9444 91.9917 62.6705 91.9917 62.3883Z" fill="#CFD8D9"/>
<path d="M91.9917 61.1433C98.3827 61.1433 104.774 61.1433 111.358 61.1433C111.358 61.4172 111.358 61.6911 111.358 61.9733C104.967 61.9733 98.5764 61.9733 91.9917 61.9733C91.9917 61.6994 91.9917 61.4255 91.9917 61.1433Z" fill="#CFD8D9"/>
<path d="M91.9917 59.8983C98.3827 59.8983 104.774 59.8983 111.358 59.8983C111.358 60.1722 111.358 60.4461 111.358 60.7283C104.967 60.7283 98.5764 60.7283 91.9917 60.7283C91.9917 60.4544 91.9917 60.1805 91.9917 59.8983Z" fill="#CDD6D7"/>
<path d="M76.7749 116.477C81.4312 116.477 86.0875 116.477 90.8849 116.477C90.8849 116.842 90.8849 117.207 90.8849 117.583C86.2286 117.583 81.5723 117.583 76.7749 117.583C76.7749 117.218 76.7749 116.853 76.7749 116.477Z" fill="#212E54"/>
<path d="M94.4814 80.925C100.051 80.925 105.62 80.925 111.358 80.925C111.358 81.1989 111.358 81.4728 111.358 81.755C105.789 81.755 100.22 81.755 94.4814 81.755C94.4814 81.4811 94.4814 81.2072 94.4814 80.925Z" fill="#CDD6D7"/>
<path d="M56.3018 95.5884C62.7384 95.5884 69.1751 95.5884 75.8068 95.5884C75.8068 95.8166 75.8068 96.0449 75.8068 96.28C69.3701 96.28 62.9335 96.28 56.3018 96.28C56.3018 96.0518 56.3018 95.8235 56.3018 95.5884Z" fill="#CAD4D5"/>
<path d="M56.3018 94.3434C62.7384 94.3434 69.1751 94.3434 75.8068 94.3434C75.8068 94.5716 75.8068 94.7999 75.8068 95.0351C69.3701 95.0351 62.9335 95.0351 56.3018 95.0351C56.3018 94.8068 56.3018 94.5786 56.3018 94.3434Z" fill="#CAD4D5"/>
<path d="M56.3018 88.2567C62.7384 88.2567 69.1751 88.2567 75.8068 88.2567C75.8068 88.485 75.8068 88.7132 75.8068 88.9484C69.3701 88.9484 62.9335 88.9484 56.3018 88.9484C56.3018 88.7201 56.3018 88.4919 56.3018 88.2567Z" fill="#CAD4D5"/>
<path d="M56.3018 84.66C62.7384 84.66 69.1751 84.66 75.8068 84.66C75.8068 84.8883 75.8068 85.1165 75.8068 85.3517C69.3701 85.3517 62.9335 85.3517 56.3018 85.3517C56.3018 85.1235 56.3018 84.8952 56.3018 84.66Z" fill="#CAD4D5"/>
<path d="M56.3018 83.415C62.7384 83.415 69.1751 83.415 75.8068 83.415C75.8068 83.6433 75.8068 83.8715 75.8068 84.1067C69.3701 84.1067 62.9335 84.1067 56.3018 84.1067C56.3018 83.8785 56.3018 83.6502 56.3018 83.415Z" fill="#CAD4D5"/>
<path d="M56.3018 82.17C62.7384 82.17 69.1751 82.17 75.8068 82.17C75.8068 82.3983 75.8068 82.6265 75.8068 82.8617C69.3701 82.8617 62.9335 82.8617 56.3018 82.8617C56.3018 82.6335 56.3018 82.4052 56.3018 82.17Z" fill="#CAD4D5"/>
<path d="M56.3018 78.4351C62.7384 78.4351 69.1751 78.4351 75.8068 78.4351C75.8068 78.6633 75.8068 78.8916 75.8068 79.1267C69.3701 79.1267 62.9335 79.1267 56.3018 79.1267C56.3018 78.8985 56.3018 78.6702 56.3018 78.4351Z" fill="#CAD4D5"/>
<path d="M56.3018 77.1899C62.7384 77.1899 69.1751 77.1899 75.8068 77.1899C75.8068 77.4182 75.8068 77.6464 75.8068 77.8816C69.3701 77.8816 62.9335 77.8816 56.3018 77.8816C56.3018 77.6534 56.3018 77.4251 56.3018 77.1899Z" fill="#CAD4D5"/>
<path d="M56.3018 72.3484C62.7384 72.3484 69.1751 72.3484 75.8068 72.3484C75.8068 72.5766 75.8068 72.8049 75.8068 73.0401C69.3701 73.0401 62.9335 73.0401 56.3018 73.0401C56.3018 72.8118 56.3018 72.5836 56.3018 72.3484Z" fill="#CAD4D5"/>
<path d="M56.3018 71.1033C62.7384 71.1033 69.1751 71.1033 75.8068 71.1033C75.8068 71.3315 75.8068 71.5598 75.8068 71.7949C69.3701 71.7949 62.9335 71.7949 56.3018 71.7949C56.3018 71.5667 56.3018 71.3384 56.3018 71.1033Z" fill="#CAD4D5"/>
<path d="M56.3018 69.8583C62.7384 69.8583 69.1751 69.8583 75.8068 69.8583C75.8068 70.0865 75.8068 70.3148 75.8068 70.5499C69.3701 70.5499 62.9335 70.5499 56.3018 70.5499C56.3018 70.3217 56.3018 70.0934 56.3018 69.8583Z" fill="#CAD4D5"/>
<path d="M56.3018 67.3683C62.7384 67.3683 69.1751 67.3683 75.8068 67.3683C75.8068 67.5965 75.8068 67.8248 75.8068 68.06C69.3701 68.06 62.9335 68.06 56.3018 68.06C56.3018 67.8317 56.3018 67.6035 56.3018 67.3683Z" fill="#CAD4D5"/>
<path d="M56.3018 66.1233C62.7384 66.1233 69.1751 66.1233 75.8068 66.1233C75.8068 66.3515 75.8068 66.5798 75.8068 66.815C69.3701 66.815 62.9335 66.815 56.3018 66.815C56.3018 66.5867 56.3018 66.3585 56.3018 66.1233Z" fill="#CAD4D5"/>
<path d="M56.3018 64.8783C62.7384 64.8783 69.1751 64.8783 75.8068 64.8783C75.8068 65.1065 75.8068 65.3348 75.8068 65.57C69.3701 65.57 62.9335 65.57 56.3018 65.57C56.3018 65.3417 56.3018 65.1135 56.3018 64.8783Z" fill="#CAD4D5"/>
<path d="M56.3018 58.7916C62.7384 58.7916 69.1751 58.7916 75.8068 58.7916C75.8068 59.0199 75.8068 59.2481 75.8068 59.4833C69.3701 59.4833 62.9335 59.4833 56.3018 59.4833C56.3018 59.255 56.3018 59.0268 56.3018 58.7916Z" fill="#CAD4D5"/>
<path d="M91.9917 95.5884C98.3827 95.5884 104.774 95.5884 111.358 95.5884C111.358 95.8166 111.358 96.0449 111.358 96.28C104.967 96.28 98.5764 96.28 91.9917 96.28C91.9917 96.0518 91.9917 95.8235 91.9917 95.5884Z" fill="#CAD4D5"/>
<path d="M91.9917 94.3434C98.3827 94.3434 104.774 94.3434 111.358 94.3434C111.358 94.5716 111.358 94.7999 111.358 95.0351C104.967 95.0351 98.5764 95.0351 91.9917 95.0351C91.9917 94.8068 91.9917 94.5786 91.9917 94.3434Z" fill="#CAD4D5"/>
<path d="M91.9917 88.2567C98.3827 88.2567 104.774 88.2567 111.358 88.2567C111.358 88.485 111.358 88.7132 111.358 88.9484C104.967 88.9484 98.5764 88.9484 91.9917 88.9484C91.9917 88.7201 91.9917 88.4919 91.9917 88.2567Z" fill="#CAD4D5"/>
<path d="M91.9917 84.66C98.3827 84.66 104.774 84.66 111.358 84.66C111.358 84.8883 111.358 85.1165 111.358 85.3517C104.967 85.3517 98.5764 85.3517 91.9917 85.3517C91.9917 85.1235 91.9917 84.8952 91.9917 84.66Z" fill="#CAD4D5"/>
<path d="M91.9917 83.415C98.3827 83.415 104.774 83.415 111.358 83.415C111.358 83.6433 111.358 83.8715 111.358 84.1067C104.967 84.1067 98.5764 84.1067 91.9917 84.1067C91.9917 83.8785 91.9917 83.6502 91.9917 83.415Z" fill="#CAD4D5"/>
<path d="M91.9917 82.17C98.3827 82.17 104.774 82.17 111.358 82.17C111.358 82.3983 111.358 82.6265 111.358 82.8617C104.967 82.8617 98.5764 82.8617 91.9917 82.8617C91.9917 82.6335 91.9917 82.4052 91.9917 82.17Z" fill="#CAD4D5"/>
<path d="M91.9917 79.6801C98.3827 79.6801 104.774 79.6801 111.358 79.6801C111.358 79.9083 111.358 80.1366 111.358 80.3717C104.967 80.3717 98.5764 80.3717 91.9917 80.3717C91.9917 80.1435 91.9917 79.9152 91.9917 79.6801Z" fill="#CAD4D5"/>
<path d="M91.9917 78.4351C98.3827 78.4351 104.774 78.4351 111.358 78.4351C111.358 78.6633 111.358 78.8916 111.358 79.1267C104.967 79.1267 98.5764 79.1267 91.9917 79.1267C91.9917 78.8985 91.9917 78.6702 91.9917 78.4351Z" fill="#CAD4D5"/>
<path d="M91.9917 77.1899C98.3827 77.1899 104.774 77.1899 111.358 77.1899C111.358 77.4182 111.358 77.6464 111.358 77.8816C104.967 77.8816 98.5764 77.8816 91.9917 77.8816C91.9917 77.6534 91.9917 77.4251 91.9917 77.1899Z" fill="#CAD4D5"/>
<path d="M91.9917 72.3484C98.3827 72.3484 104.774 72.3484 111.358 72.3484C111.358 72.5766 111.358 72.8049 111.358 73.0401C104.967 73.0401 98.5764 73.0401 91.9917 73.0401C91.9917 72.8118 91.9917 72.5836 91.9917 72.3484Z" fill="#CAD4D5"/>
<path d="M91.9917 71.1033C98.3827 71.1033 104.774 71.1033 111.358 71.1033C111.358 71.3315 111.358 71.5598 111.358 71.7949C104.967 71.7949 98.5764 71.7949 91.9917 71.7949C91.9917 71.5667 91.9917 71.3384 91.9917 71.1033Z" fill="#CAD4D5"/>
<path d="M91.9917 67.3683C98.3827 67.3683 104.774 67.3683 111.358 67.3683C111.358 67.5965 111.358 67.8248 111.358 68.06C104.967 68.06 98.5764 68.06 91.9917 68.06C91.9917 67.8317 91.9917 67.6035 91.9917 67.3683Z" fill="#CAD4D5"/>
<path d="M91.9917 66.1233C98.3827 66.1233 104.774 66.1233 111.358 66.1233C111.358 66.3515 111.358 66.5798 111.358 66.815C104.967 66.815 98.5764 66.815 91.9917 66.815C91.9917 66.5867 91.9917 66.3585 91.9917 66.1233Z" fill="#CAD4D5"/>
<path d="M91.9917 64.8783C98.3827 64.8783 104.774 64.8783 111.358 64.8783C111.358 65.1065 111.358 65.3348 111.358 65.57C104.967 65.57 98.5764 65.57 91.9917 65.57C91.9917 65.3417 91.9917 65.1135 91.9917 64.8783Z" fill="#CAD4D5"/>
<path d="M86.1816 103.335C87.5968 103.335 89.0119 103.335 90.47 103.335C90.47 105.393 90.47 105.393 89.9166 106.102C89.3514 106.638 88.7581 106.632 88.0086 106.672C87.3584 106.647 87.0927 106.522 86.5966 106.102C86.1816 105.272 86.1816 105.272 86.1816 103.335Z" fill="#B2DE4E"/>
<path d="M96.6948 56.1633C101.397 56.1633 106.099 56.1633 110.943 56.1633C110.943 56.4372 110.943 56.7111 110.943 56.9933C106.241 56.9933 101.539 56.9933 96.6948 56.9933C96.6948 56.7194 96.6948 56.4455 96.6948 56.1633Z" fill="#CED7D8"/>
<path d="M56.855 56.1633C61.5113 56.1633 66.1676 56.1633 70.965 56.1633C70.965 56.4372 70.965 56.7111 70.965 56.9933C66.3087 56.9933 61.6524 56.9933 56.855 56.9933C56.855 56.7194 56.855 56.4455 56.855 56.1633Z" fill="#CED7D8"/>
<path d="M94.4814 69.8583C100.051 69.8583 105.62 69.8583 111.358 69.8583C111.358 70.0865 111.358 70.3148 111.358 70.5499C105.789 70.5499 100.22 70.5499 94.4814 70.5499C94.4814 70.3217 94.4814 70.0934 94.4814 69.8583Z" fill="#CAD4D5"/>
<path d="M94.4814 58.7916C100.051 58.7916 105.62 58.7916 111.358 58.7916C111.358 59.0199 111.358 59.2481 111.358 59.4833C105.789 59.4833 100.22 59.4833 94.4814 59.4833C94.4814 59.255 94.4814 59.0268 94.4814 58.7916Z" fill="#CAD4D5"/>
<path d="M56.3018 79.6801C61.3689 79.6801 66.4361 79.6801 71.6568 79.6801C71.6568 79.9083 71.6568 80.1366 71.6568 80.3717C66.5896 80.3717 61.5225 80.3717 56.3018 80.3717C56.3018 80.1435 56.3018 79.9152 56.3018 79.6801Z" fill="#CAD4D5"/>
<path d="M91.9917 68.475C93.5224 68.4718 95.0531 68.4693 96.5838 68.4678C97.2945 68.4671 98.0052 68.4661 98.7159 68.4645C99.4012 68.463 100.086 68.4622 100.772 68.4619C101.034 68.4616 101.296 68.4611 101.558 68.4603C101.924 68.4594 102.289 68.4592 102.655 68.4593C102.764 68.4588 102.874 68.4583 102.987 68.4578C103.734 68.4592 103.734 68.4592 103.888 68.6133C103.888 68.8416 103.888 69.0698 103.888 69.305C99.9625 69.305 96.0366 69.305 91.9917 69.305C91.9917 69.0311 91.9917 68.7572 91.9917 68.475Z" fill="#CFD8D9"/>
<path d="M112.604 43.99C113.308 44.3924 113.827 44.7335 114.393 45.2782C114.537 45.4136 114.681 45.5489 114.825 45.684C114.894 45.7493 114.963 45.8145 115.035 45.8817C115.38 46.2023 115.74 46.5051 116.101 46.8075C116.394 47.0856 116.64 47.4097 116.892 47.725C115.477 47.725 114.062 47.725 112.604 47.725C112.604 46.4924 112.604 45.2599 112.604 43.99Z" fill="#E1E2E1"/>
<path d="M55.0567 43.99C55.0567 45.2225 55.0567 46.4551 55.0567 47.725C53.6872 47.725 52.3177 47.725 50.9067 47.725C50.9067 47.4483 50.9067 47.4483 51.0856 47.2678C51.2153 47.1603 51.2153 47.1603 51.3477 47.0506C51.8029 46.665 52.2435 46.2684 52.6786 45.8605C54.6751 43.99 54.6751 43.99 55.0567 43.99Z" fill="#E1E2E1"/>
<path d="M89.3633 62.665C89.8524 62.7391 89.8524 62.7391 90.055 62.9417C90.0694 63.1737 90.0741 63.4063 90.0751 63.6387C90.076 63.7874 90.0768 63.936 90.0778 64.0892C90.0779 64.251 90.0781 64.4128 90.0782 64.5796C90.0787 64.7445 90.0791 64.9095 90.0796 65.0794C90.0803 65.4291 90.0806 65.7788 90.0806 66.1285C90.0809 66.6653 90.0834 67.202 90.0861 67.7388C90.0865 68.0777 90.0867 68.4166 90.0869 68.7555C90.0879 68.917 90.0889 69.0786 90.0899 69.245C90.0895 69.3941 90.089 69.5432 90.0886 69.6968C90.0888 69.8284 90.089 69.9601 90.0892 70.0958C90.055 70.4117 90.055 70.4117 89.7783 70.6884C89.2892 70.6143 89.2892 70.6143 89.0867 70.4117C89.0723 70.1797 89.0675 69.9471 89.0666 69.7147C89.0657 69.566 89.0648 69.4174 89.0639 69.2642C89.0637 69.1024 89.0636 68.9406 89.0634 68.7739C89.063 68.6089 89.0625 68.444 89.062 68.274C89.0613 67.9243 89.061 67.5746 89.061 67.2249C89.0607 66.6882 89.0582 66.1514 89.0556 65.6146C89.0552 65.2757 89.0549 64.9368 89.0548 64.5979C89.0538 64.4364 89.0528 64.2749 89.0518 64.1084C89.0522 63.9593 89.0526 63.8102 89.053 63.6566C89.0529 63.525 89.0527 63.3933 89.0525 63.2576C89.0867 62.9417 89.0867 62.9417 89.3633 62.665Z" fill="#FEED9E"/>
<path d="M118.69 37.35C119.055 37.35 119.42 37.35 119.797 37.35C119.797 39.5412 119.797 41.7324 119.797 43.99C119.431 43.99 119.066 43.99 118.69 43.99C118.69 41.7988 118.69 39.6076 118.69 37.35Z" fill="#212E54"/>
<path d="M56.3018 68.475C58.8125 68.475 61.3233 68.475 63.9101 68.475C63.9101 68.7489 63.9101 69.0228 63.9101 69.305C61.3993 69.305 58.8886 69.305 56.3018 69.305C56.3018 69.0311 56.3018 68.7572 56.3018 68.475Z" fill="#D0D9DA"/>
<path d="M124.569 116.459C124.915 116.477 124.915 116.477 125.053 116.615C125.063 116.848 125.065 117.082 125.062 117.315C125.061 117.442 125.059 117.57 125.058 117.701C125.057 117.799 125.055 117.897 125.053 117.998C125.142 117.997 125.23 117.995 125.321 117.993C125.435 117.992 125.549 117.991 125.667 117.99C125.781 117.988 125.895 117.986 126.012 117.985C126.298 117.998 126.298 117.998 126.437 118.137C126.454 118.482 126.454 118.482 126.437 118.828C126.298 118.967 126.298 118.967 126.012 118.98C125.899 118.979 125.785 118.977 125.667 118.975C125.553 118.974 125.439 118.973 125.321 118.972C125.188 118.969 125.188 118.969 125.053 118.967C125.055 119.055 125.057 119.143 125.058 119.234C125.059 119.348 125.061 119.463 125.062 119.58C125.064 119.694 125.065 119.808 125.067 119.926C125.053 120.212 125.053 120.212 124.915 120.35C124.638 120.356 124.362 120.356 124.085 120.35C124.085 119.848 124.085 119.346 124.085 118.828C123.628 118.828 123.172 118.828 122.702 118.828C122.702 118.554 122.702 118.281 122.702 117.998C123.158 117.998 123.615 117.998 124.085 117.998C124.082 117.773 124.079 117.548 124.076 117.315C124.073 117.082 124.075 116.848 124.085 116.615C124.223 116.477 124.223 116.477 124.569 116.459Z" fill="#212E54"/>
<path d="M81.6167 38.7333C83.1231 38.7333 84.6296 38.7333 86.1817 38.7333C86.1817 39.1441 86.1817 39.555 86.1817 39.9783C84.6752 39.9783 83.1688 39.9783 81.6167 39.9783C81.6167 39.5674 81.6167 39.1566 81.6167 38.7333Z" fill="#212E54"/>
<path d="M44.5435 33.2C44.8174 33.2 45.0913 33.2 45.3735 33.2C45.3735 33.7021 45.3735 34.2043 45.3735 34.7216C45.83 34.7216 46.2865 34.7216 46.7568 34.7216C46.7568 34.9955 46.7568 35.2694 46.7568 35.5516C46.3003 35.5516 45.8438 35.5516 45.3735 35.5516C45.3735 36.0538 45.3735 36.5559 45.3735 37.0733C45.0996 37.0733 44.8257 37.0733 44.5435 37.0733C44.5435 36.5711 44.5435 36.069 44.5435 35.5516C44.087 35.5516 43.6305 35.5516 43.1602 35.5516C43.1602 35.2777 43.1602 35.0038 43.1602 34.7216C43.6167 34.7216 44.0732 34.7216 44.5435 34.7216C44.5435 34.2195 44.5435 33.7173 44.5435 33.2Z" fill="#212E54"/>
<path d="M123.255 39.425C123.62 39.425 123.985 39.425 124.362 39.425C124.362 40.9315 124.362 42.4379 124.362 43.99C123.996 43.99 123.631 43.99 123.255 43.99C123.255 42.4836 123.255 40.9771 123.255 39.425Z" fill="#212E54"/>
<path d="M86.0435 99.0466C87.5499 99.0466 89.0564 99.0466 90.6085 99.0466C90.6085 99.3205 90.6085 99.5944 90.6085 99.8766C89.102 99.8766 87.5956 99.8766 86.0435 99.8766C86.0435 99.6027 86.0435 99.3288 86.0435 99.0466Z" fill="#C5F654"/>
<path d="M86.0435 99.8767C87.5499 99.8767 89.0564 99.8767 90.6085 99.8767C90.6085 100.105 90.6085 100.333 90.6085 100.568C89.102 100.568 87.5956 100.568 86.0435 100.568C86.0435 100.34 86.0435 100.112 86.0435 99.8767Z" fill="#F6C03B"/>
<path d="M112.604 89.3633C113.608 89.3633 114.612 89.3633 115.647 89.3633C115.647 89.6828 115.647 90.0024 115.647 90.3316C114.643 90.3316 113.638 90.3316 112.604 90.3316C112.604 90.0121 112.604 89.6925 112.604 89.3633Z" fill="#D0D8D9"/>
<path d="M52.4342 89.3477C52.5551 89.3484 52.6761 89.3491 52.8008 89.3499C52.9314 89.3503 53.062 89.3507 53.1966 89.3512C53.334 89.3524 53.4714 89.3535 53.6129 89.3547C53.7509 89.3553 53.8888 89.356 54.0309 89.3566C54.3729 89.3582 54.7148 89.3605 55.0568 89.3634C55.0568 89.6829 55.0568 90.0025 55.0568 90.3317C54.5755 90.3357 54.0942 90.3382 53.6129 90.3403C53.4068 90.3421 53.4068 90.3421 53.1966 90.3439C53.066 90.3443 52.9353 90.3447 52.8008 90.3452C52.6193 90.3463 52.6193 90.3463 52.4342 90.3474C52.1518 90.3317 52.1518 90.3317 52.0135 90.1934C51.9962 89.8475 51.9962 89.8475 52.0135 89.5017C52.1518 89.3634 52.1518 89.3634 52.4342 89.3477Z" fill="#D1D9DA"/>
<path d="M125.606 40.9467C125.926 40.9467 126.246 40.9467 126.575 40.9467C126.575 41.9053 126.575 42.864 126.575 43.8517C126.255 43.8517 125.936 43.8517 125.606 43.8517C125.606 42.893 125.606 41.9344 125.606 40.9467Z" fill="#212E54"/>
<path d="M121.042 40.9467C121.361 40.9467 121.681 40.9467 122.01 40.9467C122.01 41.9053 122.01 42.864 122.01 43.8517C121.69 43.8517 121.371 43.8517 121.042 43.8517C121.042 42.893 121.042 41.9344 121.042 40.9467Z" fill="#212E54"/>
<path d="M112.604 93.0984C113.608 93.0984 114.612 93.0984 115.647 93.0984C115.647 93.3723 115.647 93.6462 115.647 93.9284C114.643 93.9284 113.638 93.9284 112.604 93.9284C112.604 93.6545 112.604 93.3806 112.604 93.0984Z" fill="#CFD8D9"/>
<path d="M112.604 91.8533C113.608 91.8533 114.612 91.8533 115.647 91.8533C115.647 92.1272 115.647 92.4011 115.647 92.6833C114.643 92.6833 113.638 92.6833 112.604 92.6833C112.604 92.4094 112.604 92.1355 112.604 91.8533Z" fill="#CFD8D9"/>
<path d="M112.604 90.6084C113.608 90.6084 114.612 90.6084 115.647 90.6084C115.647 90.8823 115.647 91.1562 115.647 91.4384C114.643 91.4384 113.638 91.4384 112.604 91.4384C112.604 91.1645 112.604 90.8906 112.604 90.6084Z" fill="#CFD8D9"/>
<path d="M112.604 87.0117C113.608 87.0117 114.612 87.0117 115.647 87.0117C115.647 87.2856 115.647 87.5595 115.647 87.8417C114.643 87.8417 113.638 87.8417 112.604 87.8417C112.604 87.5678 112.604 87.2939 112.604 87.0117Z" fill="#CFD8D9"/>
<path d="M112.604 85.7667C113.608 85.7667 114.612 85.7667 115.647 85.7667C115.647 86.0406 115.647 86.3145 115.647 86.5967C114.643 86.5967 113.638 86.5967 112.604 86.5967C112.604 86.3228 112.604 86.0489 112.604 85.7667Z" fill="#CFD8D9"/>
<path d="M112.604 80.925C113.608 80.925 114.612 80.925 115.647 80.925C115.647 81.1989 115.647 81.4728 115.647 81.755C114.643 81.755 113.638 81.755 112.604 81.755C112.604 81.4811 112.604 81.2072 112.604 80.925Z" fill="#CDD6D7"/>
<path d="M112.604 75.9449C113.608 75.9449 114.612 75.9449 115.647 75.9449C115.647 76.2188 115.647 76.4927 115.647 76.7749C114.643 76.7749 113.638 76.7749 112.604 76.7749C112.604 76.501 112.604 76.2271 112.604 75.9449Z" fill="#CFD8D9"/>
<path d="M112.604 74.7C113.608 74.7 114.612 74.7 115.647 74.7C115.647 74.9739 115.647 75.2478 115.647 75.53C114.643 75.53 113.638 75.53 112.604 75.53C112.604 75.2561 112.604 74.9822 112.604 74.7Z" fill="#CFD8D9"/>
<path d="M112.604 73.455C113.608 73.455 114.612 73.455 115.647 73.455C115.647 73.7289 115.647 74.0028 115.647 74.285C114.643 74.285 113.638 74.285 112.604 74.285C112.604 74.0111 112.604 73.7372 112.604 73.455Z" fill="#CFD8D9"/>
<path d="M112.604 63.6333C113.608 63.6333 114.612 63.6333 115.647 63.6333C115.647 63.9072 115.647 64.1811 115.647 64.4633C114.643 64.4633 113.638 64.4633 112.604 64.4633C112.604 64.1894 112.604 63.9155 112.604 63.6333Z" fill="#CFD8D9"/>
<path d="M112.604 62.3883C113.608 62.3883 114.612 62.3883 115.647 62.3883C115.647 62.6622 115.647 62.9361 115.647 63.2183C114.643 63.2183 113.638 63.2183 112.604 63.2183C112.604 62.9444 112.604 62.6705 112.604 62.3883Z" fill="#CFD8D9"/>
<path d="M112.604 61.1433C113.608 61.1433 114.612 61.1433 115.647 61.1433C115.647 61.4172 115.647 61.6911 115.647 61.9733C114.643 61.9733 113.638 61.9733 112.604 61.9733C112.604 61.6994 112.604 61.4255 112.604 61.1433Z" fill="#CFD8D9"/>
<path d="M112.604 59.8983C113.608 59.8983 114.612 59.8983 115.647 59.8983C115.647 60.1722 115.647 60.4461 115.647 60.7283C114.643 60.7283 113.638 60.7283 112.604 60.7283C112.604 60.4544 112.604 60.1805 112.604 59.8983Z" fill="#CDD6D7"/>
<path d="M52.0132 93.0984C53.0175 93.0984 54.0218 93.0984 55.0565 93.0984C55.0565 93.3723 55.0565 93.6462 55.0565 93.9284C54.5752 93.9324 54.094 93.9349 53.6127 93.937C53.4066 93.9388 53.4066 93.9388 53.1963 93.9405C53.0657 93.941 52.9351 93.9414 52.8005 93.9419C52.619 93.943 52.619 93.943 52.4339 93.9441C52.1515 93.9284 52.1515 93.9284 52.0132 93.7901C52.0132 93.5618 52.0132 93.3336 52.0132 93.0984Z" fill="#D1D9DA"/>
<path d="M52.0132 91.8533C53.0175 91.8533 54.0218 91.8533 55.0565 91.8533C55.0565 92.1272 55.0565 92.4011 55.0565 92.6833C54.5752 92.6873 54.094 92.6897 53.6127 92.6919C53.4066 92.6937 53.4066 92.6937 53.1963 92.6954C53.0657 92.6959 52.9351 92.6963 52.8005 92.6968C52.619 92.6979 52.619 92.6979 52.4339 92.699C52.1515 92.6833 52.1515 92.6833 52.0132 92.5449C52.0132 92.3167 52.0132 92.0884 52.0132 91.8533Z" fill="#D1D9DA"/>
<path d="M52.4339 90.5927C52.5549 90.5934 52.6758 90.5941 52.8005 90.5948C52.9311 90.5953 53.0617 90.5957 53.1963 90.5962C53.3337 90.5974 53.4711 90.5985 53.6127 90.5997C53.7506 90.6003 53.8885 90.601 54.0306 90.6016C54.3726 90.6032 54.7146 90.6055 55.0565 90.6084C55.0565 90.8823 55.0565 91.1562 55.0565 91.4384C54.0522 91.4384 53.0479 91.4384 52.0132 91.4384C52.0132 90.616 52.0132 90.616 52.4339 90.5927Z" fill="#D1D9DA"/>
<path d="M52.4339 86.996C52.5549 86.9967 52.6758 86.9974 52.8005 86.9982C52.9311 86.9986 53.0617 86.9991 53.1963 86.9995C53.3337 87.0007 53.4711 87.0018 53.6127 87.003C53.7506 87.0037 53.8885 87.0043 54.0306 87.0049C54.3726 87.0066 54.7146 87.0088 55.0565 87.0117C55.0565 87.2856 55.0565 87.5595 55.0565 87.8417C54.0522 87.8417 53.0479 87.8417 52.0132 87.8417C52.0132 87.0194 52.0132 87.0194 52.4339 86.996Z" fill="#D1D9DA"/>
<path d="M52.4339 85.751C52.5549 85.7517 52.6758 85.7524 52.8005 85.7532C52.9311 85.7536 53.0617 85.7541 53.1963 85.7545C53.3337 85.7557 53.4711 85.7568 53.6127 85.758C53.7506 85.7587 53.8885 85.7593 54.0306 85.7599C54.3726 85.7616 54.7146 85.7638 55.0565 85.7667C55.0565 86.0406 55.0565 86.3145 55.0565 86.5967C54.0522 86.5967 53.0479 86.5967 52.0132 86.5967C52.0132 85.7744 52.0132 85.7744 52.4339 85.751Z" fill="#D1D9DA"/>
<path d="M52.0132 75.9449C53.0175 75.9449 54.0218 75.9449 55.0565 75.9449C55.0565 76.2188 55.0565 76.4927 55.0565 76.7749C54.5752 76.7789 54.094 76.7814 53.6127 76.7836C53.4066 76.7853 53.4066 76.7853 53.1963 76.7871C53.0657 76.7876 52.9351 76.788 52.8005 76.7885C52.619 76.7895 52.619 76.7895 52.4339 76.7907C52.1515 76.7749 52.1515 76.7749 52.0132 76.6366C52.0132 76.4084 52.0132 76.1801 52.0132 75.9449Z" fill="#D1D9DA"/>
<path d="M52.0132 74.7C53.0175 74.7 54.0218 74.7 55.0565 74.7C55.0565 74.9739 55.0565 75.2478 55.0565 75.53C54.5752 75.5339 54.094 75.5364 53.6127 75.5386C53.4066 75.5403 53.4066 75.5403 53.1963 75.5421C53.0657 75.5426 52.9351 75.543 52.8005 75.5435C52.619 75.5445 52.619 75.5445 52.4339 75.5457C52.1515 75.53 52.1515 75.53 52.0132 75.3916C52.0132 75.1634 52.0132 74.9351 52.0132 74.7Z" fill="#D1D9DA"/>
<path d="M52.4339 73.4393C52.5549 73.4401 52.6758 73.4408 52.8005 73.4415C52.9311 73.442 53.0617 73.4424 53.1963 73.4429C53.3337 73.444 53.4711 73.4452 53.6127 73.4464C53.7506 73.447 53.8885 73.4476 54.0306 73.4483C54.3726 73.4499 54.7146 73.4522 55.0565 73.455C55.0565 73.7289 55.0565 74.0028 55.0565 74.285C54.0522 74.285 53.0479 74.285 52.0132 74.285C52.0132 73.4627 52.0132 73.4627 52.4339 73.4393Z" fill="#D1D9DA"/>
<path d="M52.4339 68.4594C52.5549 68.4601 52.6758 68.4608 52.8005 68.4615C52.9311 68.462 53.0617 68.4624 53.1963 68.4629C53.3337 68.4641 53.4711 68.4652 53.6127 68.4664C53.7506 68.467 53.8885 68.4677 54.0306 68.4683C54.3726 68.4699 54.7146 68.4722 55.0565 68.4751C55.0565 68.749 55.0565 69.0229 55.0565 69.3051C54.0522 69.3051 53.0479 69.3051 52.0132 69.3051C52.0132 68.4827 52.0132 68.4827 52.4339 68.4594Z" fill="#D1D9DA"/>
<path d="M52.0132 63.6333C53.0175 63.6333 54.0218 63.6333 55.0565 63.6333C55.0565 63.9072 55.0565 64.1811 55.0565 64.4633C54.5752 64.4673 54.094 64.4698 53.6127 64.4719C53.4066 64.4737 53.4066 64.4737 53.1963 64.4755C53.0657 64.4759 52.9351 64.4764 52.8005 64.4768C52.619 64.4779 52.619 64.4779 52.4339 64.479C52.1515 64.4633 52.1515 64.4633 52.0132 64.325C52.0132 64.0967 52.0132 63.8685 52.0132 63.6333Z" fill="#D1D9DA"/>
<path d="M52.0132 62.3883C53.0175 62.3883 54.0218 62.3883 55.0565 62.3883C55.0565 62.6622 55.0565 62.9361 55.0565 63.2183C54.5752 63.2223 54.094 63.2248 53.6127 63.227C53.4066 63.2287 53.4066 63.2287 53.1963 63.2305C53.0657 63.2309 52.9351 63.2314 52.8005 63.2318C52.619 63.2329 52.619 63.2329 52.4339 63.234C52.1515 63.2183 52.1515 63.2183 52.0132 63.08C52.0132 62.8517 52.0132 62.6235 52.0132 62.3883Z" fill="#D1D9DA"/>
<path d="M52.4339 61.1277C52.5549 61.1284 52.6758 61.1291 52.8005 61.1299C52.9311 61.1303 53.0617 61.1308 53.1963 61.1312C53.3337 61.1324 53.4711 61.1335 53.6127 61.1347C53.7506 61.1354 53.8885 61.136 54.0306 61.1366C54.3726 61.1383 54.7146 61.1406 55.0565 61.1434C55.0565 61.4173 55.0565 61.6912 55.0565 61.9734C54.0522 61.9734 53.0479 61.9734 52.0132 61.9734C52.0132 61.1511 52.0132 61.1511 52.4339 61.1277Z" fill="#D1D9DA"/>
<path d="M52.4339 59.8826C52.5549 59.8833 52.6758 59.884 52.8005 59.8848C52.9311 59.8852 53.0617 59.8857 53.1963 59.8861C53.3337 59.8873 53.4711 59.8884 53.6127 59.8896C53.7506 59.8903 53.8885 59.8909 54.0306 59.8915C54.3726 59.8932 54.7146 59.8954 55.0565 59.8983C55.0565 60.1722 55.0565 60.4461 55.0565 60.7283C54.0522 60.7283 53.0479 60.7283 52.0132 60.7283C52.0132 59.906 52.0132 59.906 52.4339 59.8826Z" fill="#CED7D8"/>
<path d="M88.2568 50.63C88.5701 51.1001 88.7256 51.5761 88.8965 52.1084C88.9283 52.2055 88.96 52.3026 88.9927 52.4027C89.0708 52.6416 89.148 52.8808 89.2251 53.12C88.6316 53.12 88.0382 53.12 87.4268 53.12C87.5979 52.2215 87.8565 51.4518 88.2568 50.63Z" fill="#3E5654"/>
<path d="M82.4468 49.8C83.4054 49.8 84.3641 49.8 85.3518 49.8C84.418 50.8894 84.418 50.8894 83.8301 51.3217C83.5991 51.0945 83.3687 50.8667 83.1384 50.6387C83.0101 50.5119 82.8817 50.3851 82.7494 50.2545C82.4468 49.9384 82.4468 49.9384 82.4468 49.8Z" fill="#212E54"/>
<path d="M112.604 95.5884C113.608 95.5884 114.612 95.5884 115.647 95.5884C115.647 95.8166 115.647 96.0449 115.647 96.28C114.643 96.28 113.638 96.28 112.604 96.28C112.604 96.0518 112.604 95.8235 112.604 95.5884Z" fill="#CAD4D5"/>
<path d="M52.0132 95.5884C53.0175 95.5884 54.0218 95.5884 55.0565 95.5884C55.0565 95.8166 55.0565 96.0449 55.0565 96.28C54.0522 96.28 53.0479 96.28 52.0132 96.28C52.0132 96.0518 52.0132 95.8235 52.0132 95.5884Z" fill="#CBD4D5"/>
<path d="M112.604 94.3434C113.608 94.3434 114.612 94.3434 115.647 94.3434C115.647 94.5716 115.647 94.7999 115.647 95.0351C114.643 95.0351 113.638 95.0351 112.604 95.0351C112.604 94.8068 112.604 94.5786 112.604 94.3434Z" fill="#CAD4D5"/>
<path d="M52.0132 94.3434C53.0175 94.3434 54.0218 94.3434 55.0565 94.3434C55.0565 94.5716 55.0565 94.7999 55.0565 95.0351C54.0522 95.0351 53.0479 95.0351 52.0132 95.0351C52.0132 94.8068 52.0132 94.5786 52.0132 94.3434Z" fill="#CBD4D5"/>
<path d="M112.604 88.2567C113.608 88.2567 114.612 88.2567 115.647 88.2567C115.647 88.485 115.647 88.7132 115.647 88.9484C114.643 88.9484 113.638 88.9484 112.604 88.9484C112.604 88.7201 112.604 88.4919 112.604 88.2567Z" fill="#CAD4D5"/>
<path d="M52.0132 88.2567C53.0175 88.2567 54.0218 88.2567 55.0565 88.2567C55.0565 88.485 55.0565 88.7132 55.0565 88.9484C54.0522 88.9484 53.0479 88.9484 52.0132 88.9484C52.0132 88.7201 52.0132 88.4919 52.0132 88.2567Z" fill="#CBD4D5"/>
<path d="M112.604 84.66C113.608 84.66 114.612 84.66 115.647 84.66C115.647 84.8883 115.647 85.1165 115.647 85.3517C114.643 85.3517 113.638 85.3517 112.604 85.3517C112.604 85.1235 112.604 84.8952 112.604 84.66Z" fill="#CAD4D5"/>
<path d="M52.0132 84.66C53.0175 84.66 54.0218 84.66 55.0565 84.66C55.0565 84.8883 55.0565 85.1165 55.0565 85.3517C54.0522 85.3517 53.0479 85.3517 52.0132 85.3517C52.0132 85.1235 52.0132 84.8952 52.0132 84.66Z" fill="#CBD4D5"/>
<path d="M112.604 83.415C113.608 83.415 114.612 83.415 115.647 83.415C115.647 83.6433 115.647 83.8715 115.647 84.1067C114.643 84.1067 113.638 84.1067 112.604 84.1067C112.604 83.8785 112.604 83.6502 112.604 83.415Z" fill="#CAD4D5"/>
<path d="M52.0132 83.415C53.0175 83.415 54.0218 83.415 55.0565 83.415C55.0565 83.6433 55.0565 83.8715 55.0565 84.1067C54.0522 84.1067 53.0479 84.1067 52.0132 84.1067C52.0132 83.8785 52.0132 83.6502 52.0132 83.415Z" fill="#CBD4D5"/>
<path d="M112.604 82.17C113.608 82.17 114.612 82.17 115.647 82.17C115.647 82.3983 115.647 82.6265 115.647 82.8617C114.643 82.8617 113.638 82.8617 112.604 82.8617C112.604 82.6335 112.604 82.4052 112.604 82.17Z" fill="#CAD4D5"/>
<path d="M52.0132 82.17C53.0175 82.17 54.0218 82.17 55.0565 82.17C55.0565 82.3983 55.0565 82.6265 55.0565 82.8617C54.0522 82.8617 53.0479 82.8617 52.0132 82.8617C52.0132 82.6335 52.0132 82.4052 52.0132 82.17Z" fill="#CBD4D5"/>
<path d="M52.0132 79.6801C53.0175 79.6801 54.0218 79.6801 55.0565 79.6801C55.0565 79.9083 55.0565 80.1366 55.0565 80.3717C54.0522 80.3717 53.0479 80.3717 52.0132 80.3717C52.0132 80.1435 52.0132 79.9152 52.0132 79.6801Z" fill="#CBD4D5"/>
<path d="M112.604 78.4351C113.608 78.4351 114.612 78.4351 115.647 78.4351C115.647 78.6633 115.647 78.8916 115.647 79.1267C114.643 79.1267 113.638 79.1267 112.604 79.1267C112.604 78.8985 112.604 78.6702 112.604 78.4351Z" fill="#CAD4D5"/>
<path d="M52.0132 78.4351C53.0175 78.4351 54.0218 78.4351 55.0565 78.4351C55.0565 78.6633 55.0565 78.8916 55.0565 79.1267C54.0522 79.1267 53.0479 79.1267 52.0132 79.1267C52.0132 78.8985 52.0132 78.6702 52.0132 78.4351Z" fill="#CBD4D5"/>
<path d="M112.604 77.1899C113.608 77.1899 114.612 77.1899 115.647 77.1899C115.647 77.4182 115.647 77.6464 115.647 77.8816C114.643 77.8816 113.638 77.8816 112.604 77.8816C112.604 77.6534 112.604 77.4251 112.604 77.1899Z" fill="#CAD4D5"/>
<path d="M52.0132 77.1899C53.0175 77.1899 54.0218 77.1899 55.0565 77.1899C55.0565 77.4182 55.0565 77.6464 55.0565 77.8816C54.0522 77.8816 53.0479 77.8816 52.0132 77.8816C52.0132 77.6534 52.0132 77.4251 52.0132 77.1899Z" fill="#CBD4D5"/>
<path d="M112.604 72.3484C113.608 72.3484 114.612 72.3484 115.647 72.3484C115.647 72.5766 115.647 72.8049 115.647 73.0401C114.643 73.0401 113.638 73.0401 112.604 73.0401C112.604 72.8118 112.604 72.5836 112.604 72.3484Z" fill="#CAD4D5"/>
<path d="M52.0132 72.3484C53.0175 72.3484 54.0218 72.3484 55.0565 72.3484C55.0565 72.5766 55.0565 72.8049 55.0565 73.0401C54.0522 73.0401 53.0479 73.0401 52.0132 73.0401C52.0132 72.8118 52.0132 72.5836 52.0132 72.3484Z" fill="#CBD4D5"/>
<path d="M112.604 71.1033C113.608 71.1033 114.612 71.1033 115.647 71.1033C115.647 71.3315 115.647 71.5598 115.647 71.7949C114.643 71.7949 113.638 71.7949 112.604 71.7949C112.604 71.5667 112.604 71.3384 112.604 71.1033Z" fill="#CAD4D5"/>
<path d="M52.0132 71.1033C53.0175 71.1033 54.0218 71.1033 55.0565 71.1033C55.0565 71.3315 55.0565 71.5598 55.0565 71.7949C54.0522 71.7949 53.0479 71.7949 52.0132 71.7949C52.0132 71.5667 52.0132 71.3384 52.0132 71.1033Z" fill="#CBD4D5"/>
<path d="M112.604 69.8583C113.608 69.8583 114.612 69.8583 115.647 69.8583C115.647 70.0865 115.647 70.3148 115.647 70.5499C114.643 70.5499 113.638 70.5499 112.604 70.5499C112.604 70.3217 112.604 70.0934 112.604 69.8583Z" fill="#CAD4D5"/>
<path d="M112.604 67.3683C113.608 67.3683 114.612 67.3683 115.647 67.3683C115.647 67.5965 115.647 67.8248 115.647 68.06C114.643 68.06 113.638 68.06 112.604 68.06C112.604 67.8317 112.604 67.6035 112.604 67.3683Z" fill="#CAD4D5"/>
<path d="M52.0132 67.3683C53.0175 67.3683 54.0218 67.3683 55.0565 67.3683C55.0565 67.5965 55.0565 67.8248 55.0565 68.06C54.0522 68.06 53.0479 68.06 52.0132 68.06C52.0132 67.8317 52.0132 67.6035 52.0132 67.3683Z" fill="#CBD4D5"/>
<path d="M112.604 66.1233C113.608 66.1233 114.612 66.1233 115.647 66.1233C115.647 66.3515 115.647 66.5798 115.647 66.815C114.643 66.815 113.638 66.815 112.604 66.815C112.604 66.5867 112.604 66.3585 112.604 66.1233Z" fill="#CAD4D5"/>
<path d="M52.0132 66.1233C53.0175 66.1233 54.0218 66.1233 55.0565 66.1233C55.0565 66.3515 55.0565 66.5798 55.0565 66.815C54.0522 66.815 53.0479 66.815 52.0132 66.815C52.0132 66.5867 52.0132 66.3585 52.0132 66.1233Z" fill="#CBD4D5"/>
<path d="M112.604 64.8783C113.608 64.8783 114.612 64.8783 115.647 64.8783C115.647 65.1065 115.647 65.3348 115.647 65.57C114.643 65.57 113.638 65.57 112.604 65.57C112.604 65.3417 112.604 65.1135 112.604 64.8783Z" fill="#CAD4D5"/>
<path d="M52.0132 64.8783C53.0175 64.8783 54.0218 64.8783 55.0565 64.8783C55.0565 65.1065 55.0565 65.3348 55.0565 65.57C54.0522 65.57 53.0479 65.57 52.0132 65.57C52.0132 65.3417 52.0132 65.1135 52.0132 64.8783Z" fill="#CBD4D5"/>
<path d="M112.604 58.7916C113.608 58.7916 114.612 58.7916 115.647 58.7916C115.647 59.0199 115.647 59.2481 115.647 59.4833C114.643 59.4833 113.638 59.4833 112.604 59.4833C112.604 59.255 112.604 59.0268 112.604 58.7916Z" fill="#CAD4D5"/>
<path d="M86.1814 103.335C86.364 103.335 86.5466 103.335 86.7348 103.335C86.7467 103.475 86.7587 103.615 86.771 103.76C86.8914 105.152 86.8914 105.152 87.7031 106.24C87.7944 106.331 87.8857 106.423 87.9798 106.517C87.608 106.56 87.608 106.56 87.1498 106.517C86.7055 106.153 86.3853 105.808 86.1814 105.272C86.1544 104.794 86.1544 104.794 86.1641 104.269C86.1666 104.094 86.1691 103.919 86.1717 103.739C86.1749 103.606 86.1781 103.472 86.1814 103.335Z" fill="#B2AA8E"/>
<path d="M89.3632 60.175C89.8523 60.2492 89.8523 60.2492 90.0549 60.4517C90.0684 60.6589 90.0729 60.8666 90.0722 61.0742C90.0726 61.1869 90.0729 61.2996 90.0733 61.4157C90.0549 61.6967 90.0549 61.6967 89.9166 61.835C89.5707 61.8523 89.5707 61.8523 89.2249 61.835C89.0051 61.6152 89.0631 61.3857 89.0606 61.0829C89.0587 60.9718 89.0567 60.8607 89.0547 60.7462C89.0866 60.4517 89.0866 60.4517 89.3632 60.175Z" fill="#FEED9F"/>
<path d="M90.6084 99.8767C90.6084 100.105 90.6084 100.333 90.6084 100.568C89.878 100.568 89.1476 100.568 88.395 100.568C88.395 100.386 88.395 100.203 88.395 100.015C88.738 99.9919 89.0809 99.9689 89.4239 99.9459C89.5217 99.9393 89.6195 99.9327 89.7203 99.9259C90.4543 99.8767 90.4543 99.8767 90.6084 99.8767Z" fill="#FDD641"/>
<path d="M82.7236 139.163C82.6779 139.392 82.6323 139.62 82.5852 139.855C82.357 139.809 82.1287 139.764 81.8936 139.717C81.9392 139.58 81.9849 139.443 82.0319 139.302C82.4469 139.163 82.4469 139.163 82.7236 139.163Z" fill="#F8F8F8"/>
<path d="M54.5034 80.925C54.686 80.925 54.8686 80.925 55.0568 80.925C55.0568 81.1989 55.0568 81.4728 55.0568 81.755C54.8742 81.7094 54.6916 81.6637 54.5034 81.6167C54.5034 81.3885 54.5034 81.1602 54.5034 80.925Z" fill="#D2DADB"/>
<path d="M54.5034 69.8583C54.686 69.8583 54.8686 69.8583 55.0568 69.8583C55.0568 70.0865 55.0568 70.3148 55.0568 70.5499C54.8742 70.5499 54.6916 70.5499 54.5034 70.5499C54.5034 70.3217 54.5034 70.0934 54.5034 69.8583Z" fill="#D0D9DA"/>
<path d="M54.5034 58.7916C54.686 58.7916 54.8686 58.7916 55.0568 58.7916C55.0568 59.0199 55.0568 59.2481 55.0568 59.4833C54.8742 59.4833 54.6916 59.4833 54.5034 59.4833C54.5034 59.255 54.5034 59.0268 54.5034 58.7916Z" fill="#D0D9DA"/>
</g>
<defs>
<clipPath id="clip0_164_494">
<rect width="166" height="166" fill="white"/>
</clipPath>
</defs>
</svg>
