<svg width="32" height="32" viewBox="0 0 32 32" fill="none" xmlns="http://www.w3.org/2000/svg">
<g clip-path="url(#clip0_56_365)">
<path d="M16 7C15.3078 7 14.6311 6.79473 14.0555 6.41015C13.4799 6.02556 13.0313 5.47894 12.7664 4.83939C12.5015 4.19985 12.4322 3.49612 12.5673 2.81719C12.7023 2.13825 13.0356 1.51461 13.5251 1.02513C14.0146 0.535644 14.6383 0.202301 15.3172 0.0672531C15.9961 -0.0677952 16.6999 0.00151652 17.3394 0.266423C17.9789 0.53133 18.5256 0.979934 18.9101 1.55551C19.2947 2.13108 19.5 2.80777 19.5 3.5C19.499 4.42795 19.1299 5.31762 18.4738 5.97378C17.8176 6.62994 16.928 6.99901 16 7Z" fill="#3C3C3C"/>
<path d="M27.0004 7.04991L26.9722 7.05741L26.946 7.06554C26.8835 7.08304 26.821 7.10179 26.7585 7.12116C25.5954 7.46241 19.9504 9.05366 15.9735 9.05366C12.2779 9.05366 7.14348 7.67866 5.50098 7.21179C5.33751 7.14858 5.17057 7.09474 5.00098 7.05054C3.81348 6.73804 3.00098 7.94429 3.00098 9.04679C3.00098 10.1387 3.98223 10.6587 4.97285 11.0318V11.0493L10.9241 12.908C11.5322 13.1412 11.6947 13.3793 11.7741 13.5855C12.0322 14.2474 11.826 15.558 11.7529 16.0155L11.3904 18.828L9.37848 29.8399C9.37223 29.8699 9.3666 29.9005 9.3616 29.9318L9.34723 30.0112C9.20223 31.0205 9.94348 31.9999 11.3472 31.9999C12.5722 31.9999 13.1129 31.1543 13.3472 30.0037C13.3472 30.0037 15.0972 20.1555 15.9722 20.1555C16.8472 20.1555 18.6497 30.0037 18.6497 30.0037C18.8841 31.1543 19.4247 31.9999 20.6497 31.9999C22.0572 31.9999 22.7985 31.0162 22.6497 30.0037C22.6366 29.9174 22.621 29.8324 22.6022 29.7499L20.5629 18.8293L20.201 16.0168C19.9391 14.3787 20.1497 13.8374 20.221 13.7105C20.2229 13.7075 20.2246 13.7044 20.226 13.7012C20.2935 13.5762 20.601 13.2962 21.3185 13.0268L26.8985 11.0762C26.9328 11.067 26.9665 11.0562 26.9997 11.0437C27.9997 10.6687 28.9997 10.1499 28.9997 9.04804C28.9997 7.94616 28.1879 6.73804 27.0004 7.04991Z" fill="#3C3C3C"/>
</g>
<defs>
<clipPath id="clip0_56_365">
<rect width="32" height="32" fill="white"/>
</clipPath>
</defs>
</svg>
