<svg width="150" height="150" viewBox="0 0 150 150" fill="none" xmlns="http://www.w3.org/2000/svg">
<path d="M56.6309 76.2891L53.2324 72.8906L75.0586 51.123L96.8848 72.8906L93.457 76.2891L77.4609 60.293V131.133H72.627V60.293L56.6309 76.2891Z" fill="#949494"/>
<path d="M116.982 53.7891C116.982 53.4375 117.041 53.0859 117.041 52.7344C117.041 33.8965 101.572 18.6328 82.8223 18.6328C69.3164 18.6328 57.6855 26.5723 52.2363 38.0566C49.8633 36.8555 47.2266 36.1816 44.3848 36.1816C35.7129 36.1816 28.5352 43.0957 27.1289 51.416C16.8164 54.9609 9.375 65.0977 9.375 76.6992C9.375 91.2598 21.123 103.125 35.625 103.125H62.4023V98.4375H35.8594C23.877 98.4375 14.1211 88.623 14.1211 76.582C14.1211 67.2656 20.0391 58.6523 28.8281 55.6055L31.2891 54.7559L31.7285 52.1777C32.7832 45.8496 38.2031 40.6641 44.5898 40.6641C46.6113 40.6641 48.6035 41.1328 50.4199 42.0703L54.375 44.0625L56.2793 40.0488C61.1426 29.8242 71.543 23.2324 82.7637 23.2324C98.9648 23.2324 112.324 35.918 112.324 52.207C112.324 56.1035 112.266 58.1543 112.266 58.1543L116.719 58.1836C127.441 58.3301 135.938 67.9687 135.938 78.7793C135.938 89.5605 127.207 98.3789 116.455 98.4375H115.518H87.0117V103.125H116.602C129.785 103.125 140.625 92.1973 140.625 78.8672C140.625 65.5371 130.225 53.8184 116.982 53.7891Z" fill="#949494"/>
</svg>
