<svg width="24" height="24" viewBox="0 0 24 24" fill="none" xmlns="http://www.w3.org/2000/svg">
<path d="M21.2999 8.08795C21.2035 7.96298 21.0828 7.85882 20.945 7.78175C20.8072 7.70467 20.6553 7.65626 20.4984 7.63945C20.3414 7.62263 20.1827 7.63775 20.0317 7.68389C19.8807 7.73004 19.7407 7.80625 19.6199 7.90795C18.3599 8.92795 17.2199 9.64795 16.0799 10.0079C14.9399 10.4279 13.6199 10.6079 11.9999 10.6079C10.3799 10.6079 9.05994 10.4279 7.91994 10.0079C6.77994 9.58795 5.63994 8.92795 4.37994 7.90795C3.83994 7.48795 3.11994 7.54795 2.69994 8.08795C2.27994 8.62795 2.33994 9.34795 2.87994 9.76795C3.6618 10.4279 4.50574 11.0107 5.39994 11.5079L4.37994 13.2479C4.07994 13.8479 4.25994 14.5679 4.79994 14.8679C5.39994 15.1679 6.11994 14.9879 6.41994 14.4479L7.55994 12.4679C8.61403 12.7788 9.70203 12.9601 10.7999 13.0079V15.1679C10.7999 15.4862 10.9264 15.7914 11.1514 16.0165C11.3765 16.2415 11.6817 16.3679 11.9999 16.3679C12.3182 16.3679 12.6234 16.2415 12.8485 16.0165C13.0735 15.7914 13.1999 15.4862 13.1999 15.1679V13.0079C14.3849 12.9504 15.5562 12.7283 16.6799 12.3479L17.8799 14.4479C18.0391 14.7185 18.2991 14.9147 18.603 14.9935C18.7534 15.0325 18.91 15.0415 19.0639 15.0199C19.2178 14.9984 19.366 14.9467 19.4999 14.8679C19.6339 14.7892 19.751 14.6848 19.8446 14.5607C19.9382 14.4366 20.0065 14.2954 20.0455 14.1449C20.0845 13.9945 20.0934 13.8379 20.0719 13.684C20.0504 13.5301 19.9987 13.3819 19.9199 13.2479L18.8399 11.3879C19.6546 10.9293 20.4188 10.3863 21.1199 9.76795C21.6599 9.34795 21.7199 8.62795 21.2999 8.08795Z" fill="#8B8B8B"/>
</svg>
