<svg width="24" height="24" viewBox="0 0 24 24" fill="none" xmlns="http://www.w3.org/2000/svg">
<g clip-path="url(#clip0_54_42)">
<rect width="24" height="24" fill="white"/>
<path d="M23.25 11.4468C23.25 10.4628 23.1718 9.74467 23.0026 9H12V13.4414H18.4583C18.3281 14.5452 17.625 16.2074 16.0625 17.3244L16.0406 17.4731L19.5194 20.2254L19.7604 20.25C21.9739 18.1622 23.25 15.0904 23.25 11.4468Z" fill="#4285F4"/>
<path d="M12.1564 23.25C15.1505 23.25 17.664 22.3358 19.5 20.759L16.0007 18.2451C15.0643 18.8507 13.8075 19.2735 12.1564 19.2735C9.22397 19.2735 6.73506 17.4796 5.84783 15L5.71779 15.0102L2.29476 17.467L2.25 17.5824C4.07355 20.9418 7.81927 23.25 12.1564 23.25Z" fill="#34A853"/>
<path d="M6 14.329C5.74291 13.6052 5.59413 12.8296 5.59413 12.0283C5.59413 11.2269 5.74291 10.4515 5.98647 9.72767L5.97966 9.57352L2.17348 6.75L2.04895 6.80658C1.22359 8.38345 0.75 10.1542 0.75 12.0283C0.75 13.9025 1.22359 15.6731 2.04895 17.25L6 14.329Z" fill="#FBBC05"/>
<path d="M12.1142 4.72643C14.1876 4.72643 15.5862 5.56057 16.3837 6.25764L19.5 3.42383C17.5861 1.76697 15.0955 0.75 12.1142 0.75C7.79551 0.75 4.06577 3.05816 2.25 6.41755L5.82022 9C6.71593 6.52043 9.19422 4.72643 12.1142 4.72643Z" fill="#EB3535"/>
</g>
<defs>
<clipPath id="clip0_54_42">
<rect width="24" height="24" fill="white"/>
</clipPath>
</defs>
</svg>
