<svg width="24" height="25" viewBox="0 0 24 25" fill="none" xmlns="http://www.w3.org/2000/svg">
<path d="M22.6663 19.1233V11.726C22.6663 11.0136 22.6657 10.6572 22.5791 10.3256C22.5023 10.0318 22.3763 9.75382 22.2058 9.50258C22.0133 9.21908 21.7457 8.98398 21.2096 8.51483L14.8096 2.91482C13.8141 2.04378 13.3164 1.60848 12.7562 1.44282C12.2626 1.29685 11.7365 1.29685 11.2429 1.44282C10.6832 1.60835 10.1861 2.04324 9.19216 2.91297L2.79004 8.51483C2.25386 8.98398 1.9864 9.21908 1.79395 9.50258C1.6234 9.75382 1.49641 10.0318 1.41964 10.3256C1.33301 10.6572 1.33301 11.0136 1.33301 11.726V19.1233C1.33301 20.3658 1.33301 20.9868 1.536 21.4769C1.80665 22.1303 2.32543 22.65 2.97884 22.9207C3.4689 23.1237 4.09015 23.1237 5.33266 23.1237C6.57517 23.1237 7.19712 23.1237 7.68717 22.9207C8.34058 22.65 8.85923 22.1304 9.12988 21.477C9.33287 20.9869 9.33301 20.3657 9.33301 19.1232V17.7898C9.33301 16.3171 10.5269 15.1232 11.9997 15.1232C13.4724 15.1232 14.6663 16.3171 14.6663 17.7898V19.1232C14.6663 20.3657 14.6663 20.9869 14.8693 21.477C15.14 22.1304 15.6588 22.65 16.3122 22.9207C16.8022 23.1237 17.4235 23.1237 18.666 23.1237C19.9085 23.1237 20.5305 23.1237 21.0205 22.9207C21.6739 22.65 22.1926 22.1303 22.4632 21.4769C22.6662 20.9868 22.6663 20.3658 22.6663 19.1233Z" stroke="#212E54" stroke-width="2" stroke-linecap="round" stroke-linejoin="round"/>
</svg>
