<svg width="44" height="44" viewBox="0 0 44 44" fill="none" xmlns="http://www.w3.org/2000/svg">
<g clip-path="url(#clip0_92_255)">
<path d="M23.523 5.13775L6.68433 14.5553C4.75026 15.637 4.05571 18.0909 5.13804 20.0261L14.5563 36.866C15.6379 38.8001 18.0918 39.4946 20.0271 38.4123L36.8669 28.9941C38.801 27.9124 39.4956 25.4585 38.4132 23.5233L28.995 6.68339C27.9115 4.74881 25.4583 4.05541 23.523 5.13775ZM37.008 24.3077C37.6569 25.4679 37.2416 26.9406 36.0802 27.5901L19.2415 37.0077C18.0813 37.6566 16.6086 37.2413 15.959 36.0799L14.5396 33.5419L16.6831 24.0828L28.2208 26.758L30.4794 20.8674L35.6229 21.8283L37.008 24.3077ZM34.6006 20.0031L29.4571 19.0422L27.2191 24.8769L15.4732 22.1517L13.3668 31.4449L6.54146 19.2412C5.89258 18.081 6.30787 16.6083 7.46924 15.9587L24.3091 6.54052C25.4693 5.89164 26.9421 6.30692 27.5916 7.46829L34.6006 20.0031Z" fill="#249CF2"/>
<path d="M25.9018 17.6239C27.8359 16.5422 28.5304 14.0883 27.4481 12.1531C26.3658 10.2179 23.9125 9.52449 21.9773 10.6068C20.0432 11.6885 19.3487 14.1424 20.431 16.0776C21.5133 18.0129 23.9666 18.7063 25.9018 17.6239ZM22.7629 12.0114C23.9231 11.3625 25.3958 11.7778 26.0453 12.9392C26.6949 14.1006 26.2789 15.5721 25.1176 16.2217C23.9562 16.8712 22.4846 16.4553 21.8351 15.2939C21.1856 14.1325 21.6015 12.6609 22.7629 12.0114Z" fill="#249CF2"/>
</g>
<defs>
<clipPath id="clip0_92_255">
<rect width="32" height="32" fill="white" transform="translate(0 15.6201) rotate(-29.2174)"/>
</clipPath>
</defs>
</svg>
