<svg width="22" height="26" viewBox="0 0 22 26" fill="none" xmlns="http://www.w3.org/2000/svg">
<path d="M1.66699 23.0003V5.26693C1.66699 3.77345 1.66699 3.02616 1.95764 2.45573C2.2133 1.95396 2.62096 1.54631 3.12272 1.29065C3.69315 1 4.44045 1 5.93392 1H18.2006C18.9473 1 19.3212 1 19.6064 1.14532C19.8573 1.27316 20.06 1.47698 20.1878 1.72786C20.3331 2.01308 20.3337 2.38673 20.3337 3.13346V18.8668C20.3337 19.6135 20.3331 19.9864 20.1878 20.2716C20.06 20.5225 19.8576 20.727 19.6067 20.8548C19.3218 21 18.9483 21 18.203 21H4.66699C3.01014 21 1.66699 22.3431 1.66699 24C1.66699 24.5523 2.11471 25 2.66699 25H16.8697C17.615 25 17.9884 25 18.2734 24.8548C18.5242 24.727 18.7267 24.5226 18.8545 24.2717C18.9998 23.9865 19.0003 23.6134 19.0003 22.8667V21" stroke="#949494" stroke-width="2" stroke-linecap="round" stroke-linejoin="round"/>
</svg>
