<svg width="24" height="25" viewBox="0 0 24 25" fill="none" xmlns="http://www.w3.org/2000/svg">
<g clip-path="url(#clip0_56_87)">
<path d="M9.75001 21.5772C9.60959 21.5777 9.47186 21.5387 9.35251 21.4647C9.24442 21.3972 9.15534 21.3032 9.09366 21.1916C9.03198 21.0801 8.99975 20.9547 9.00001 20.8272V13.6122L3.21001 7.18471C2.59034 6.49473 2.24832 5.5996 2.25001 4.67221V4.32721C2.25001 4.1283 2.32902 3.93753 2.46968 3.79688C2.61033 3.65623 2.80109 3.57721 3.00001 3.57721H21C21.1989 3.57721 21.3897 3.65623 21.5303 3.79688C21.671 3.93753 21.75 4.1283 21.75 4.32721V4.67221C21.7517 5.5996 21.4097 6.49473 20.79 7.18471L15 13.6122V17.6472C15.0008 18.066 14.8847 18.4768 14.6648 18.8332C14.4448 19.1897 14.1297 19.4776 13.755 19.6647L10.0875 21.4947C9.98301 21.5482 9.86741 21.5765 9.75001 21.5772ZM3.78751 5.07721C3.86183 5.48766 4.04879 5.86937 4.32751 6.17971L10.3275 12.8247C10.4444 12.9656 10.5057 13.1443 10.5 13.3272V19.6122L13.0875 18.3222C13.2123 18.2593 13.3171 18.1628 13.39 18.0435C13.4629 17.9242 13.501 17.787 13.5 17.6472V13.3272C13.5005 13.1413 13.57 12.9623 13.695 12.8247L19.695 6.17971C19.9792 5.87113 20.1714 5.48926 20.25 5.07721H3.78751Z" fill="#212E54"/>
</g>
<defs>
<clipPath id="clip0_56_87">
<rect width="24" height="24" fill="white" transform="translate(0 0.577209)"/>
</clipPath>
</defs>
</svg>
