<svg width="22" height="22" viewBox="0 0 22 22" fill="none" xmlns="http://www.w3.org/2000/svg">
<path d="M21.1152 10.5626V20.2404C21.1152 20.7071 20.9299 21.1546 20.5999 21.4846C20.2699 21.8146 19.8223 22 19.3556 22H1.7596C1.29293 22 0.845366 21.8146 0.515376 21.4846C0.185386 21.1546 0 20.7071 0 20.2404V2.64436C0 2.17768 0.185386 1.73012 0.515376 1.40013C0.845366 1.07014 1.29293 0.884751 1.7596 0.884751H11.4374C11.6708 0.884751 11.8945 0.977444 12.0595 1.14244C12.2245 1.30743 12.3172 1.53122 12.3172 1.76455C12.3172 1.99789 12.2245 2.22167 12.0595 2.38667C11.8945 2.55166 11.6708 2.64436 11.4374 2.64436H1.7596V20.2404H19.3556V10.5626C19.3556 10.3292 19.4483 10.1055 19.6133 9.94046C19.7783 9.77547 20.0021 9.68277 20.2354 9.68277C20.4688 9.68277 20.6926 9.77547 20.8576 9.94046C21.0226 10.1055 21.1152 10.3292 21.1152 10.5626ZM21.7421 5.03082L11.1845 15.5884C11.0169 15.7518 10.7917 15.8427 10.5576 15.8414H7.03842C6.80508 15.8414 6.5813 15.7487 6.4163 15.5837C6.25131 15.4187 6.15861 15.1949 6.15861 14.9616V11.4424C6.15729 11.2083 6.24816 10.9831 6.41156 10.8155L16.9692 0.257892C17.136 0.0926814 17.3613 0 17.596 0C17.8308 0 18.0561 0.0926814 18.2229 0.257892L21.7421 3.7771C21.9073 3.94391 22 4.16919 22 4.40396C22 4.63873 21.9073 4.86401 21.7421 5.03082ZM19.8725 4.40396L17.596 2.12747L16.1994 3.52416L18.4758 5.80064L19.8725 4.40396Z" fill="#949494"/>
</svg>
