<svg width="24" height="24" viewBox="0 0 24 24" fill="none" xmlns="http://www.w3.org/2000/svg">
<rect width="24" height="24" fill="#212E54"/>
<path d="M22.1152 10.5626V20.2404C22.1152 20.7071 21.9299 21.1546 21.5999 21.4846C21.2699 21.8146 20.8223 22 20.3556 22H2.7596C2.29293 22 1.84537 21.8146 1.51538 21.4846C1.18539 21.1546 1 20.7071 1 20.2404V2.64436C1 2.17768 1.18539 1.73012 1.51538 1.40013C1.84537 1.07014 2.29293 0.884751 2.7596 0.884751H12.4374C12.6708 0.884751 12.8945 0.977444 13.0595 1.14244C13.2245 1.30743 13.3172 1.53122 13.3172 1.76455C13.3172 1.99789 13.2245 2.22167 13.0595 2.38667C12.8945 2.55166 12.6708 2.64436 12.4374 2.64436H2.7596V20.2404H20.3556V10.5626C20.3556 10.3292 20.4483 10.1055 20.6133 9.94046C20.7783 9.77547 21.0021 9.68277 21.2354 9.68277C21.4688 9.68277 21.6926 9.77547 21.8576 9.94046C22.0226 10.1055 22.1152 10.3292 22.1152 10.5626ZM22.7421 5.03082L12.1845 15.5884C12.0169 15.7518 11.7917 15.8427 11.5576 15.8414H8.03842C7.80508 15.8414 7.5813 15.7487 7.4163 15.5837C7.25131 15.4187 7.15861 15.1949 7.15861 14.9616V11.4424C7.15729 11.2083 7.24816 10.9831 7.41156 10.8155L17.9692 0.257892C18.136 0.0926814 18.3613 0 18.596 0C18.8308 0 19.0561 0.0926814 19.2229 0.257892L22.7421 3.7771C22.9073 3.94391 23 4.16919 23 4.40396C23 4.63873 22.9073 4.86401 22.7421 5.03082ZM20.8725 4.40396L18.596 2.12747L17.1994 3.52416L19.4758 5.80064L20.8725 4.40396Z" fill="#949494"/>
</svg>
