<svg width="32" height="32" viewBox="0 0 32 32" fill="none" xmlns="http://www.w3.org/2000/svg">
<path d="M19.9997 22.667V24.0003C19.9997 26.2095 18.2088 28.0003 15.9997 28.0003C13.7905 28.0003 11.9997 26.2095 11.9997 24.0003V22.6671M19.9997 22.667L11.9997 22.6671M19.9997 22.667H25.333C26.0694 22.667 26.6663 22.0701 26.6663 21.3337V20.5524C26.6663 20.1988 26.5257 19.8598 26.2757 19.6097L25.5947 18.9287C25.4271 18.7611 25.333 18.5336 25.333 18.2965V13.3337C25.333 13.0984 25.3245 12.8651 25.307 12.6351M11.9997 22.6671L6.66634 22.6672C5.92997 22.6672 5.33301 22.0698 5.33301 21.3334V20.5524C5.33301 20.1988 5.47359 19.8602 5.72363 19.6101L6.40462 18.9281C6.5722 18.7605 6.66634 18.534 6.66634 18.2969V13.3336C6.66634 8.17901 10.845 4.00033 15.9997 4.00033C16.9485 4.00033 17.8642 4.1419 18.7269 4.40508M25.307 12.6351C26.9155 11.7167 27.9997 9.98514 27.9997 8.00033C27.9997 5.05481 25.6119 2.66699 22.6663 2.66699C21.106 2.66699 19.7022 3.33704 18.7269 4.40508M25.307 12.6351C24.5284 13.0796 23.627 13.3337 22.6663 13.3337C19.7208 13.3337 17.333 10.9458 17.333 8.00033C17.333 6.61512 17.8611 5.35326 18.7269 4.40508M25.307 12.6351C25.307 12.6351 25.307 12.6351 25.307 12.6351ZM18.7269 4.40508C18.7275 4.40527 18.7282 4.40546 18.7288 4.40565" stroke="#3C3C3C" stroke-width="2" stroke-linecap="round" stroke-linejoin="round"/>
</svg>
