<svg width="25" height="32" viewBox="0 0 25 32" fill="none" xmlns="http://www.w3.org/2000/svg">
<path d="M22.5 31.5H2.5C1.1215 31.5 0 30.3785 0 29V3C0 1.6215 1.1215 0.5 2.5 0.5H12.6717C13.3395 0.5 13.9675 0.76025 14.4393 1.23225L24.2677 11.0608C24.74 11.533 25 12.1605 25 12.8282V29C25 30.3785 23.8785 31.5 22.5 31.5ZM2.5 1.5C1.67275 1.5 1 2.17275 1 3V29C1 29.8272 1.67275 30.5 2.5 30.5H22.5C23.3272 30.5 24 29.8272 24 29V12.8282C24 12.4335 23.8397 12.047 23.5607 11.7677L13.7323 1.93925C13.449 1.656 13.0722 1.5 12.6717 1.5H2.5Z" fill="#212E54"/>
<path d="M20.302 20.08C20.2845 19.9525 20.182 19.7925 20.072 19.685C19.757 19.375 19.0645 19.2125 18.0095 19.1975C17.2945 19.19 16.4345 19.2525 15.5295 19.38C15.1245 19.1475 14.707 18.8925 14.3795 18.585C13.497 17.7625 12.762 16.62 12.302 15.3625C12.332 15.245 12.357 15.1425 12.382 15.0375C12.382 15.0375 12.877 12.2175 12.747 11.2625C12.7295 11.1325 12.717 11.095 12.682 10.9925L12.6395 10.8825C12.5045 10.57 12.2395 10.24 11.8245 10.2575L11.5795 10.25H11.5745C11.1095 10.25 10.7345 10.4875 10.6345 10.84C10.3345 11.95 10.6445 13.6125 11.207 15.7625L11.062 16.1125C10.6595 17.0975 10.1545 18.0875 9.70955 18.96L9.65205 19.0725C9.18205 19.99 8.75705 20.77 8.36955 21.43L7.97205 21.64C7.94205 21.655 7.25955 22.0175 7.09955 22.1125C5.74205 22.925 4.84205 23.845 4.69205 24.575C4.64455 24.81 4.67955 25.1075 4.92205 25.245L5.30705 25.44C5.47455 25.5225 5.65205 25.565 5.83205 25.565C6.79955 25.565 7.92205 24.36 9.46955 21.66C11.2545 21.08 13.2895 20.595 15.072 20.33C16.4295 21.0925 18.0995 21.625 19.1545 21.625C19.342 21.625 19.5045 21.6075 19.6345 21.5725C19.837 21.5175 20.007 21.4025 20.112 21.2475C20.317 20.94 20.357 20.515 20.302 20.08ZM5.62205 24.8325C5.79705 24.35 6.49705 23.395 7.52955 22.55C7.59455 22.4975 7.75455 22.3475 7.89955 22.2075C6.81955 23.93 6.09705 24.615 5.62205 24.8325ZM11.737 10.75C12.047 10.75 12.2245 11.5325 12.2395 12.2675C12.2545 13.0025 12.082 13.5175 11.8695 13.9C11.692 13.335 11.607 12.445 11.607 11.8625C11.607 11.8625 11.5945 10.75 11.737 10.75ZM9.91205 20.785C10.1295 20.3975 10.3545 19.9875 10.5845 19.555C11.147 18.4925 11.502 17.6625 11.7645 16.98C12.2895 17.935 12.9445 18.7475 13.712 19.3975C13.8095 19.4775 13.912 19.56 14.017 19.6425C12.4545 19.95 11.102 20.3275 9.91205 20.785ZM19.7695 20.6975C19.6745 20.755 19.402 20.79 19.227 20.79C18.662 20.79 17.9595 20.5325 16.977 20.11C17.3545 20.0825 17.702 20.0675 18.012 20.0675C18.5795 20.0675 18.747 20.065 19.3045 20.2075C19.8595 20.35 19.867 20.6375 19.7695 20.6975Z" fill="#212E54"/>
</svg>
