<svg width="49" height="48" viewBox="0 0 49 48" fill="none" xmlns="http://www.w3.org/2000/svg">
<g clip-path="url(#clip0_92_122)">
<path d="M18.5 12H14.5C13.9696 12 13.4609 12.2107 13.0858 12.5858C12.7107 12.9609 12.5 13.4696 12.5 14V18" stroke="#212E54" stroke-width="3" stroke-linecap="round" stroke-linejoin="round"/>
<path d="M30.5 12H34.5C35.0304 12 35.5391 12.2107 35.9142 12.5858C36.2893 12.9609 36.5 13.4696 36.5 14V18" stroke="#212E54" stroke-width="3" stroke-linecap="round" stroke-linejoin="round"/>
<path d="M36.5 30V34C36.5 34.5304 36.2893 35.0391 35.9142 35.4142C35.5391 35.7893 35.0304 36 34.5 36H30.5" stroke="#212E54" stroke-width="3" stroke-linecap="round" stroke-linejoin="round"/>
<path d="M18.5 36H14.5C13.9696 36 13.4609 35.7893 13.0858 35.4142C12.7107 35.0391 12.5 34.5304 12.5 34V30" stroke="#212E54" stroke-width="3" stroke-linecap="round" stroke-linejoin="round"/>
<path d="M12.5 24H36.5" stroke="#212E54" stroke-width="3" stroke-linecap="round" stroke-linejoin="round"/>
</g>
<defs>
<clipPath id="clip0_92_122">
<rect width="48" height="48" fill="white" transform="translate(0.5)"/>
</clipPath>
</defs>
</svg>
