<svg width="40" height="40" viewBox="0 0 40 40" fill="none" xmlns="http://www.w3.org/2000/svg">
<rect width="40" height="40" rx="20" fill="#FBF4F4"/>
<path d="M17.8025 24.96C14.8938 25.0329 10.6498 25.6184 8.26304 23.8307C6.59798 22.5836 6.06859 20.406 6.76328 18.4058C7.6425 15.8743 10.0958 15.7314 12.4463 15.9116C12.8206 15.9403 13.1376 15.5712 13.1386 15.2193C13.1505 11.1578 13.4277 7.35418 18.0616 6.17166C19.392 5.83215 21.2866 5.79331 22.664 5.9984C25.4667 6.41571 25.3464 8.0997 25.3912 10.3133C25.401 10.7968 25.9879 11.2308 26.433 10.9111C29.0698 9.01707 32.3052 12.8809 33.1357 14.956C33.7109 16.3931 33.7812 19.3021 33.3221 20.7906C31.9506 25.237 26.0591 24.7884 22.3675 24.7589C21.4763 24.7518 21.4754 26.1364 22.3675 26.1436C28.1796 26.1899 35.042 25.7341 34.925 18.3528C34.8746 15.1716 34.0187 12.6417 31.5173 10.5584C29.8635 9.18096 27.6251 8.35722 25.7341 9.7155C26.0814 9.91476 26.4286 10.114 26.7759 10.3133C26.7468 8.88134 27.1755 6.32988 25.9316 5.24469C24.4238 3.92925 20.5272 4.44825 18.7379 4.673C16.2265 4.98848 14.3507 6.10942 12.8294 8.1197C11.273 10.1764 11.7612 12.7585 11.754 15.2193C11.9848 14.9885 12.2156 14.7578 12.4463 14.527C7.66775 14.1607 4.16273 16.4161 5.28319 21.6987C6.50175 27.4437 13.2898 26.4577 17.8025 26.3447C18.6919 26.3224 18.6953 24.9377 17.8025 24.96Z" fill="#212E54"/>
<path d="M16.4628 21.9182C17.8539 20.5013 19.2326 19.0728 20.5992 17.6322C20.3747 17.6916 20.1502 17.7509 19.9257 17.8103C21.1605 18.2757 22.2668 19.8203 22.962 20.8782C23.4493 21.6199 24.6488 20.927 24.1575 20.1794C23.1917 18.7096 21.9813 17.1112 20.2937 16.4751C20.073 16.3919 19.7771 16.4877 19.6202 16.6532C18.2535 18.0937 16.8748 19.5223 15.4837 20.9392C14.859 21.5756 15.8373 22.5554 16.4628 21.9182Z" fill="#212E54"/>
<path d="M19.5793 17.6683C19.5753 23.429 19.5713 29.1897 19.5674 34.9503C19.5668 35.8413 20.9514 35.8427 20.952 34.9503C20.956 29.1897 20.9599 23.429 20.9639 17.6683C20.9645 16.7773 19.5799 16.7759 19.5793 17.6683Z" fill="#212E54"/>
</svg>
