<svg width="24" height="24" viewBox="0 0 24 24" fill="none" xmlns="http://www.w3.org/2000/svg">
<g clip-path="url(#clip0_92_637)">
<path d="M12.87 15.075L10.33 12.565L10.36 12.535C12.1 10.595 13.34 8.365 14.07 6.005H17V4H10V2H8V4H1V5.99H12.17C11.495 7.92 10.44 9.75 9 11.35C8.07 10.315 7.3 9.19 6.69 8H4.69C5.42 9.63 6.42 11.17 7.67 12.56L2.585 17.585L4 19L9 14L12.11 17.11L12.87 15.075ZM18.5 10H16.5L12 22H14L15.125 19H19.875L21 22H23L18.5 10ZM15.875 17L17.5 12.665L19.125 17H15.875Z" fill="#949494"/>
</g>
<defs>
<clipPath id="clip0_92_637">
<rect width="24" height="24" fill="white"/>
</clipPath>
</defs>
</svg>
