<svg width="24" height="24" viewBox="0 0 24 24" fill="none" xmlns="http://www.w3.org/2000/svg">
<path d="M11.9483 0.234375C18.4468 0.234375 23.7139 5.50148 23.7139 11.9999C23.7139 18.4983 18.4468 23.7656 11.9483 23.7656C5.44987 23.7656 0.182804 18.4983 0.182804 11.9999C0.182804 5.50148 5.44991 0.234375 11.9483 0.234375ZM11.9483 1.21486C6.0014 1.21486 1.16324 6.05302 1.16324 12C1.16324 14.6163 2.1006 17.0176 3.65652 18.8871C4.73179 18.438 7.27007 17.5572 8.84132 17.0933C8.97534 17.0512 8.99643 17.0444 8.99643 16.4867C8.99643 16.0261 8.80687 15.5623 8.62204 15.1697C8.42193 14.7431 8.18451 14.026 8.09924 13.3825C7.86084 13.1058 7.53627 12.56 7.32754 11.5198C7.14468 10.6029 7.2299 10.2693 7.35144 9.95616C7.36391 9.92311 7.37732 9.89058 7.38688 9.858C7.43287 9.64303 7.36968 8.52614 7.2126 7.65961C7.10442 7.065 7.2404 5.80064 8.05902 4.75467C8.57605 4.0935 9.56516 3.28205 11.3719 3.16908L12.3629 3.17002C14.139 3.28209 15.1291 4.0935 15.6461 4.75467C16.4647 5.80069 16.6007 7.06505 16.4925 7.65919C16.3345 8.52614 16.2723 9.64303 16.3173 9.85369C16.3268 9.89053 16.3402 9.92311 16.3536 9.95616C16.4743 10.2693 16.5605 10.6029 16.3766 11.5198C16.1689 12.56 15.8443 13.1058 15.6049 13.3825C15.5206 14.0259 15.2832 14.7431 15.0821 15.1697C14.9356 15.4818 14.8667 15.9065 14.8667 16.5068C14.8667 17.0645 14.8878 17.0713 15.0132 17.111C16.638 17.5907 19.2242 18.5252 20.1884 18.9474C21.7749 17.0693 22.7334 14.645 22.7334 12C22.7334 6.05297 17.8953 1.21486 11.9483 1.21486ZM19.478 19.7117C18.374 19.261 16.1728 18.4758 14.727 18.0488C13.8863 17.7836 13.8863 17.0755 13.8863 16.5068C13.8863 16.0352 13.9188 15.3401 14.1946 14.7522C14.3842 14.3496 14.6006 13.6592 14.6484 13.1188C14.659 12.9924 14.7183 12.8756 14.8141 12.7923C14.9529 12.6706 15.2354 12.2254 15.4154 11.3273C15.558 10.6164 15.4977 10.4608 15.4393 10.3105C15.4144 10.2463 15.3905 10.1831 15.3713 10.1118C15.2535 9.68142 15.3847 8.26767 15.5274 7.4835C15.5896 7.14262 15.5111 6.17414 14.8734 5.35833C14.3018 4.62731 13.4363 4.21988 12.3323 4.14952L11.4026 4.14853C10.2689 4.21987 9.40335 4.62731 8.83077 5.35833C8.19309 6.17414 8.11551 7.14262 8.1778 7.48392C8.31951 8.26767 8.45165 9.68138 8.3339 10.1113C8.31374 10.1831 8.29082 10.2463 8.26588 10.3104C8.20743 10.4607 8.14715 10.6163 8.28885 11.3273C8.46881 12.2254 8.75226 12.6706 8.8911 12.7922C8.98588 12.8755 9.04523 12.9923 9.05676 13.1187C9.10368 13.6592 9.32006 14.3496 9.50962 14.7522C9.72698 15.2142 9.97687 15.8294 9.97687 16.4866C9.97687 17.0554 9.97687 17.7635 9.12759 18.0311C7.74402 18.4399 5.53223 19.1997 4.3641 19.659C6.31448 21.5903 8.99446 22.7852 11.9483 22.7852C14.8754 22.7852 17.5324 21.6113 19.478 19.7117Z" fill="#8B8B8B"/>
</svg>
