<svg width="32" height="30" viewBox="0 0 32 30" fill="none" xmlns="http://www.w3.org/2000/svg">
<path fill-rule="evenodd" clip-rule="evenodd" d="M26.372 3.46537L24.8907 5.68404C27.5987 7.88404 29.3333 11.2387 29.3333 15C29.3333 18.7627 27.5987 22.1174 24.8907 24.3174L26.372 26.5347C29.7933 23.852 32 19.688 32 15C32 10.3134 29.7947 6.14937 26.372 3.46537ZM23.4 7.91604L21.904 10.156C23.1947 11.3734 24.0107 13.0867 24.0107 15.0014C24.0107 16.916 23.1947 18.6307 21.904 19.848L23.4 22.088C25.396 20.3734 26.6667 17.8374 26.6667 15C26.6667 12.164 25.3973 9.62804 23.4 7.91604ZM16 0.333374C14.4307 0.333374 13.956 1.24537 13.956 1.24537C13.956 1.24537 9.87467 5.72937 7.064 7.70804C6.54667 8.03737 5.97867 8.33337 4.97333 8.33337H2.66667C1.19467 8.33337 0 9.52804 0 11V19C0 20.472 1.19467 21.6667 2.66667 21.6667H4.97333C5.97867 21.6667 6.54667 21.9627 7.06267 22.292C9.87333 24.2707 13.9547 28.756 13.9547 28.756C13.9547 28.756 14.4307 29.6667 16 29.6667C17.472 29.6667 18.6667 28.4734 18.6667 27V3.00004C18.6667 1.52671 17.472 0.333374 16 0.333374Z" fill="#212E54"/>
</svg>
